<svg id="svg" version="1.1" xmlns="http://www.w3.org/2000/svg" xmlns:xlink="http://www.w3.org/1999/xlink" width="400" height="400" viewBox="0, 0, 400,400"><g id="svgg"><path id="path0" d="M0.000 200.000 L 0.000 400.000 200.000 400.000 L 400.000 400.000 400.000 200.000 L 400.000 0.000 200.000 0.000 L 0.000 0.000 0.000 200.000 M146.929 169.386 C 147.425 169.883,147.482 171.516,147.298 179.986 C 147.178 185.494,147.173 190.000,147.287 190.000 C 147.401 190.000,148.676 189.207,150.120 188.239 C 160.668 181.166,171.273 188.733,171.367 203.400 C 171.466 218.926,159.269 227.416,148.744 219.147 L 147.288 218.003 147.008 219.501 C 146.574 221.827,146.536 221.841,141.188 221.521 C 136.102 221.217,135.200 220.897,135.200 219.400 C 135.200 218.178,135.841 217.753,138.200 217.411 C 139.300 217.252,140.332 216.914,140.494 216.661 C 141.048 215.791,140.859 175.994,140.300 175.816 C 140.025 175.729,138.765 175.542,137.500 175.400 L 135.200 175.142 135.200 173.595 L 135.200 172.048 138.700 171.002 C 140.625 170.427,142.920 169.710,143.800 169.410 C 145.901 168.692,146.233 168.690,146.929 169.386 M279.548 169.337 C 279.862 169.715,280.024 176.844,280.097 193.437 L 280.200 217.000 282.400 217.400 C 285.190 217.907,285.600 218.187,285.600 219.581 C 285.600 221.154,285.344 221.200,276.600 221.200 C 267.882 221.200,267.600 221.150,267.600 219.606 C 267.600 218.189,268.159 217.765,270.467 217.431 C 273.366 217.012,273.218 218.214,273.104 195.955 L 273.000 175.800 270.495 175.464 C 266.115 174.878,266.031 172.492,270.346 171.232 C 271.806 170.805,274.170 170.101,275.600 169.666 C 278.815 168.688,278.996 168.673,279.548 169.337 M50.475 184.600 C 52.606 190.760,55.260 198.439,56.372 201.665 C 61.283 215.913,61.640 216.797,62.543 216.973 C 63.014 217.065,64.210 217.288,65.200 217.470 C 66.877 217.777,67.009 217.893,67.130 219.158 C 67.319 221.137,67.078 221.187,57.333 221.194 C 47.063 221.201,47.200 221.228,47.200 219.202 C 47.200 217.540,47.019 217.629,51.700 216.975 C 54.032 216.649,54.028 216.784,51.873 210.600 L 50.200 205.800 42.556 205.692 C 36.744 205.609,34.816 205.705,34.512 206.092 C 34.122 206.588,30.800 215.797,30.800 216.383 C 30.800 216.545,32.175 216.871,33.856 217.107 C 36.947 217.540,37.583 217.934,37.594 219.420 C 37.606 221.075,37.002 221.200,29.020 221.194 C 20.580 221.187,20.283 221.116,20.470 219.158 C 20.608 217.720,20.570 217.738,25.800 216.608 C 26.332 216.493,26.824 215.792,27.267 214.517 C 29.620 207.750,34.942 192.412,37.647 184.600 C 39.399 179.540,41.030 174.897,41.272 174.282 C 41.695 173.208,41.806 173.169,44.156 173.282 L 46.600 173.400 50.475 184.600 M248.075 184.600 C 250.206 190.760,252.860 198.439,253.972 201.665 C 258.883 215.913,259.240 216.797,260.143 216.973 C 260.614 217.065,261.810 217.288,262.800 217.470 C 264.477 217.777,264.609 217.893,264.730 219.158 C 264.919 221.137,264.678 221.187,254.933 221.194 C 244.663 221.201,244.800 221.228,244.800 219.202 C 244.800 217.540,244.619 217.629,249.300 216.975 C 251.632 216.649,251.628 216.784,249.473 210.600 L 247.800 205.800 240.156 205.692 C 234.344 205.609,232.416 205.705,232.112 206.092 C 231.722 206.588,228.400 215.797,228.400 216.383 C 228.400 216.545,229.775 216.871,231.456 217.107 C 234.547 217.540,235.183 217.934,235.194 219.420 C 235.206 221.075,234.602 221.200,226.620 221.194 C 218.180 221.187,217.883 221.116,218.070 219.158 C 218.208 217.720,218.170 217.738,223.400 216.608 C 223.932 216.493,224.424 215.792,224.867 214.517 C 227.220 207.750,232.542 192.412,235.247 184.600 C 236.999 179.540,238.630 174.897,238.872 174.282 C 239.295 173.208,239.406 173.169,241.756 173.282 L 244.200 173.400 248.075 184.600 M369.513 182.100 L 369.625 186.800 373.580 186.800 C 378.725 186.800,378.800 186.835,378.800 189.243 L 378.800 191.200 374.633 191.200 C 368.594 191.200,369.200 189.936,369.202 202.543 C 369.205 214.555,369.415 216.077,371.199 216.999 C 372.727 217.790,373.033 217.763,375.462 216.632 C 378.723 215.114,380.547 216.961,378.100 219.304 C 374.490 222.762,366.615 222.540,364.099 218.909 C 362.685 216.869,362.616 216.254,362.408 203.800 L 362.200 191.400 359.500 191.282 L 356.800 191.163 356.800 189.596 C 356.800 187.840,357.527 187.200,359.524 187.200 C 362.948 187.200,363.022 187.121,363.796 182.661 C 364.746 177.186,364.781 177.133,367.325 177.280 L 369.400 177.400 369.513 182.100 M39.090 192.051 C 37.396 196.913,36.108 201.051,36.228 201.246 C 36.599 201.845,48.400 201.693,48.400 201.089 C 48.400 200.345,42.868 183.908,42.490 183.530 C 42.314 183.354,40.784 187.189,39.090 192.051 M236.690 192.051 C 234.996 196.913,233.708 201.051,233.828 201.246 C 234.199 201.845,246.000 201.693,246.000 201.089 C 246.000 200.345,240.468 183.908,240.090 183.530 C 239.914 183.354,238.384 187.189,236.690 192.051 M98.290 186.204 C 100.475 186.853,102.587 188.812,103.038 190.607 C 103.358 191.884,103.353 191.885,105.490 190.004 C 111.065 185.097,118.691 184.270,122.573 188.152 C 125.260 190.839,125.600 192.693,125.600 204.676 C 125.600 217.302,125.552 217.043,127.942 217.398 C 130.636 217.799,132.138 220.201,130.167 220.957 C 129.342 221.274,115.058 221.274,114.233 220.957 C 112.163 220.163,113.785 217.799,116.665 217.412 L 118.730 217.135 119.015 213.339 C 119.469 207.283,119.046 196.072,118.298 194.331 C 116.649 190.495,110.875 190.539,105.968 194.425 L 104.400 195.667 104.400 205.660 C 104.400 216.823,104.438 217.004,106.895 217.409 C 109.044 217.764,109.600 218.215,109.600 219.606 C 109.600 221.144,109.296 221.200,101.000 221.200 C 92.679 221.200,92.400 221.147,92.400 219.581 C 92.400 218.213,92.805 217.919,95.400 217.400 L 97.400 217.000 97.400 206.000 C 97.400 193.938,97.263 193.120,95.062 192.066 C 92.439 190.808,88.511 191.692,84.900 194.352 L 83.200 195.605 83.206 205.903 C 83.213 217.489,83.111 217.032,85.802 217.484 C 88.034 217.858,89.074 219.307,88.020 220.576 C 87.488 221.217,73.375 221.549,71.833 220.957 C 69.811 220.181,71.272 217.986,74.200 217.400 L 76.200 217.000 76.200 205.400 L 76.200 193.800 74.103 193.544 C 71.167 193.186,70.799 192.981,70.806 191.713 C 70.815 190.073,70.998 189.933,75.889 187.834 C 81.567 185.397,82.192 185.473,82.519 188.636 C 82.814 191.499,82.892 191.553,84.571 190.079 C 88.894 186.284,93.846 184.885,98.290 186.204 M311.400 186.142 C 315.387 187.205,318.013 189.273,319.764 192.729 C 321.394 195.945,321.771 199.186,320.971 203.094 L 320.788 203.987 309.694 204.094 L 298.600 204.200 298.650 206.229 C 298.888 215.960,309.701 220.264,317.328 213.662 C 320.271 211.115,322.081 212.455,320.041 215.671 C 314.213 224.861,298.833 224.181,293.693 214.507 C 286.031 200.086,297.112 182.335,311.400 186.142 M352.161 186.158 C 355.460 187.536,355.779 191.459,352.722 193.040 C 351.113 193.872,348.489 193.603,346.852 192.437 L 345.631 191.567 344.010 193.237 C 343.119 194.156,341.852 196.034,341.195 197.411 L 340.000 199.914 340.000 208.108 C 340.000 217.298,339.893 216.966,343.000 217.413 C 345.858 217.824,346.964 219.276,345.520 220.720 C 345.013 221.227,329.889 221.439,328.633 220.957 C 326.546 220.156,328.188 217.799,331.106 217.406 L 333.212 217.123 333.106 205.462 L 333.000 193.800 330.903 193.544 C 327.967 193.186,327.599 192.981,327.606 191.713 C 327.615 190.073,327.798 189.933,332.689 187.834 C 338.702 185.254,339.023 185.338,339.400 189.597 C 339.704 193.029,340.036 193.465,340.970 191.658 C 343.130 187.481,348.735 184.726,352.161 186.158 M188.276 186.900 C 188.454 187.175,188.600 192.980,188.600 199.800 C 188.600 213.674,188.741 214.528,191.243 215.822 C 193.176 216.822,196.521 216.409,199.545 214.797 C 203.511 212.683,203.280 213.437,203.511 201.830 L 203.713 191.644 202.557 191.394 C 198.886 190.602,197.270 188.989,198.880 187.722 C 199.724 187.058,209.178 186.218,209.719 186.759 C 210.044 187.084,210.137 191.385,210.049 201.981 L 209.927 216.750 211.664 217.184 C 214.167 217.809,214.585 218.131,214.726 219.543 C 214.883 221.122,214.780 221.160,209.448 221.525 C 204.389 221.872,204.367 221.863,204.125 219.349 C 203.821 216.202,203.775 216.176,201.700 218.022 C 196.436 222.704,188.160 223.534,184.714 219.726 C 182.444 217.218,182.214 215.814,182.000 203.200 L 181.800 191.400 180.800 191.278 C 177.716 190.901,176.301 189.628,177.189 188.030 C 177.767 186.988,187.680 185.978,188.276 186.900 M304.861 190.124 C 301.534 191.382,298.440 196.335,298.756 199.900 C 298.873 201.226,313.268 200.342,314.289 198.946 C 317.381 194.718,310.281 188.075,304.861 190.124 M153.600 190.753 C 152.242 191.196,149.600 192.614,148.493 193.494 C 147.588 194.212,147.586 194.241,147.693 204.168 L 147.800 214.122 149.678 215.416 C 157.906 221.085,164.819 215.105,164.310 202.759 C 163.941 193.778,159.519 188.821,153.600 190.753 " stroke="none" fill="#fbfbfb" fill-rule="evenodd"></path><path id="path1" d="M144.200 169.989 C 143.760 170.174,142.050 170.712,140.400 171.185 C 134.149 172.977,133.729 174.120,139.000 175.001 L 141.400 175.402 141.515 195.201 C 141.653 219.181,141.885 217.303,138.699 218.039 C 136.874 218.460,136.170 218.811,136.067 219.350 C 135.834 220.558,136.383 220.713,141.400 220.860 L 146.200 221.000 146.400 219.231 C 146.662 216.913,147.093 216.852,149.440 218.800 C 161.692 228.969,176.501 210.472,169.082 194.266 C 165.256 185.911,155.280 183.802,148.883 189.997 C 146.325 192.474,146.248 192.146,146.574 180.190 L 146.863 169.600 145.932 169.627 C 145.419 169.642,144.640 169.805,144.200 169.989 M273.227 171.027 C 266.836 172.926,266.131 174.231,271.107 174.951 C 273.082 175.237,273.576 175.460,273.761 176.151 C 274.073 177.314,274.059 198.790,273.739 209.060 L 273.477 217.449 270.839 218.024 C 268.618 218.509,268.180 218.742,268.072 219.500 L 267.944 220.400 276.400 220.400 L 284.856 220.400 284.728 219.517 C 284.624 218.798,284.153 218.526,282.200 218.056 C 278.951 217.274,279.191 219.285,279.231 193.200 C 279.265 170.787,279.236 169.797,278.533 169.734 C 278.130 169.697,275.742 170.279,273.227 171.027 M41.807 174.921 C 41.245 176.268,39.332 181.631,38.000 185.600 C 37.594 186.810,36.538 189.870,35.654 192.400 C 29.581 209.782,28.281 213.537,27.964 214.618 C 27.321 216.815,26.698 217.292,23.984 217.663 C 21.429 218.012,20.817 218.404,20.806 219.700 C 20.800 220.344,21.445 220.400,28.800 220.400 L 36.800 220.400 36.800 219.424 C 36.800 218.154,36.532 218.020,33.417 217.729 C 29.707 217.382,29.702 217.359,31.830 211.155 C 34.166 204.344,33.406 204.800,42.414 204.800 C 51.303 204.800,50.426 204.253,52.793 211.277 C 54.847 217.376,54.841 217.406,51.420 217.725 C 48.266 218.020,48.000 218.152,48.000 219.424 L 48.000 220.400 57.227 220.400 L 66.453 220.400 66.327 219.300 C 66.211 218.299,65.994 218.164,63.917 217.800 C 61.257 217.334,61.078 217.187,60.265 214.800 C 59.927 213.810,58.546 209.850,57.195 206.000 C 55.844 202.150,54.405 198.010,53.998 196.800 C 53.194 194.413,48.214 180.081,46.845 176.214 C 46.380 174.901,46.000 173.776,46.000 173.714 C 46.000 172.723,42.278 173.795,41.807 174.921 M239.407 174.921 C 238.845 176.268,236.932 181.631,235.600 185.600 C 235.194 186.810,234.138 189.870,233.254 192.400 C 227.181 209.782,225.881 213.537,225.564 214.618 C 224.921 216.815,224.298 217.292,221.584 217.663 C 219.029 218.012,218.417 218.404,218.406 219.700 C 218.400 220.344,219.045 220.400,226.400 220.400 L 234.400 220.400 234.400 219.424 C 234.400 218.154,234.132 218.020,231.017 217.729 C 227.307 217.382,227.302 217.359,229.430 211.155 C 231.766 204.344,231.006 204.800,240.014 204.800 C 248.903 204.800,248.026 204.253,250.393 211.277 C 252.447 217.376,252.441 217.406,249.020 217.725 C 245.866 218.020,245.600 218.152,245.600 219.424 L 245.600 220.400 254.827 220.400 L 264.053 220.400 263.927 219.300 C 263.811 218.299,263.594 218.164,261.517 217.800 C 258.857 217.334,258.678 217.187,257.865 214.800 C 257.527 213.810,256.146 209.850,254.795 206.000 C 253.444 202.150,252.005 198.010,251.598 196.800 C 250.794 194.413,245.814 180.081,244.445 176.214 C 243.980 174.901,243.600 173.776,243.600 173.714 C 243.600 172.723,239.878 173.795,239.407 174.921 M365.722 177.916 C 365.459 178.083,365.048 179.385,364.809 180.810 C 363.648 187.713,363.822 187.438,360.349 187.835 C 355.795 188.355,355.760 190.683,360.303 190.882 L 363.000 191.000 363.200 203.800 C 363.424 218.109,363.483 218.409,366.472 220.192 C 369.396 221.937,375.856 220.993,378.119 218.490 C 379.442 217.028,378.055 216.232,375.894 217.214 C 369.622 220.061,368.800 218.394,368.800 202.833 L 368.800 190.825 373.500 190.713 L 378.200 190.600 378.200 189.200 L 378.200 187.800 373.600 187.600 L 369.000 187.400 369.027 182.800 C 369.043 179.960,368.890 178.088,368.627 177.906 C 368.070 177.523,366.331 177.529,365.722 177.916 M46.043 191.400 C 50.218 203.686,50.668 202.400,42.200 202.400 C 36.557 202.400,35.200 202.294,35.200 201.855 C 35.200 201.555,36.386 197.910,37.835 193.755 C 39.284 189.600,40.768 185.250,41.131 184.089 C 42.191 180.699,42.628 181.349,46.043 191.400 M243.643 191.400 C 247.818 203.686,248.268 202.400,239.800 202.400 C 234.157 202.400,232.800 202.294,232.800 201.855 C 232.800 201.555,233.986 197.910,235.435 193.755 C 236.884 189.600,238.368 185.250,238.731 184.089 C 239.791 180.699,240.228 181.349,243.643 191.400 M76.216 188.374 C 70.152 191.020,69.388 192.544,73.960 192.875 C 75.293 192.971,76.519 193.186,76.686 193.353 C 77.082 193.749,77.370 212.575,77.023 215.356 L 76.755 217.500 74.377 218.005 C 72.287 218.448,72.000 218.623,72.000 219.455 L 72.000 220.400 79.800 220.400 L 87.600 220.400 87.600 219.464 C 87.600 218.654,87.300 218.460,85.377 218.030 C 82.395 217.362,82.400 217.384,82.400 205.605 L 82.400 195.662 84.070 194.233 C 87.855 190.993,93.258 189.898,95.869 191.842 C 98.138 193.531,98.425 195.304,98.307 206.917 L 98.200 217.360 95.600 217.998 C 93.466 218.523,92.977 218.795,92.872 219.519 L 92.744 220.400 100.800 220.400 L 108.856 220.400 108.728 219.500 C 108.624 218.770,108.165 218.490,106.300 218.018 L 104.000 217.436 104.000 206.347 L 104.000 195.258 105.500 194.019 C 109.752 190.505,115.356 189.793,117.797 192.457 C 119.531 194.349,119.673 195.616,119.520 207.766 L 119.400 217.333 117.000 217.967 C 115.051 218.482,114.576 218.771,114.472 219.501 L 114.344 220.400 122.400 220.400 C 130.439 220.400,130.455 220.398,130.328 219.532 C 130.226 218.840,129.712 218.535,127.800 218.030 L 125.400 217.397 125.144 205.599 C 124.875 193.193,124.683 191.844,122.815 189.221 C 119.775 184.952,111.061 185.728,105.616 190.754 C 103.400 192.799,103.391 192.798,102.342 190.566 C 99.735 185.020,91.049 185.132,84.683 190.793 C 82.430 192.796,82.488 192.822,81.966 189.582 C 81.350 185.754,81.938 185.878,76.216 188.374 M303.800 186.862 C 286.006 192.772,288.803 221.634,307.166 221.595 C 312.035 221.585,316.804 219.282,319.216 215.777 C 321.208 212.881,320.073 211.979,317.463 214.384 C 309.570 221.660,297.765 215.926,297.614 204.743 C 297.594 203.223,297.770 203.200,309.590 203.200 C 321.746 203.200,320.800 203.501,320.800 199.627 C 320.800 190.655,312.084 184.110,303.800 186.862 M333.016 188.374 C 326.952 191.020,326.188 192.544,330.760 192.875 C 332.093 192.971,333.319 193.186,333.486 193.353 C 333.883 193.750,334.170 212.578,333.821 215.368 L 333.552 217.526 331.276 218.079 C 329.443 218.525,328.975 218.805,328.872 219.517 L 328.744 220.400 336.972 220.400 L 345.200 220.400 345.200 219.489 C 345.200 218.690,344.870 218.505,342.516 217.989 C 339.176 217.256,339.292 217.610,339.240 207.953 C 339.191 198.918,339.847 196.667,343.742 192.500 C 345.144 191.000,346.063 190.877,347.491 192.000 C 350.575 194.426,355.495 191.678,353.830 188.458 C 351.716 184.370,345.333 186.301,341.406 192.217 C 339.506 195.080,339.406 195.023,338.885 190.795 C 338.445 187.221,338.210 186.371,337.676 186.431 C 337.524 186.448,335.427 187.322,333.016 188.374 M180.473 187.690 C 177.143 188.200,176.584 190.383,179.776 190.406 C 180.229 190.409,181.019 190.634,181.530 190.906 L 182.460 191.400 182.531 202.600 C 182.612 215.200,182.846 216.521,185.480 219.260 C 189.075 222.997,196.526 221.990,201.777 217.057 C 202.865 216.036,203.801 215.200,203.859 215.200 C 204.111 215.200,204.796 218.319,204.798 219.476 C 204.801 221.145,204.702 221.118,209.800 220.840 C 214.163 220.602,214.200 220.592,214.200 219.600 C 214.200 218.717,213.931 218.532,211.905 218.019 L 209.609 217.438 209.505 202.419 L 209.400 187.400 207.400 187.293 C 202.020 187.005,196.242 189.367,200.274 190.206 C 200.893 190.335,201.940 190.573,202.600 190.735 L 203.800 191.030 203.906 201.668 L 204.013 212.306 202.525 213.612 C 198.975 216.729,192.991 217.986,190.495 216.139 C 188.268 214.490,188.210 214.103,188.084 200.100 L 187.969 187.200 185.484 187.251 C 184.118 187.279,181.863 187.476,180.473 187.690 M309.400 189.242 C 313.007 190.227,315.200 193.143,315.200 196.955 C 315.200 200.617,314.738 200.800,305.490 200.800 L 297.889 200.800 298.120 198.848 C 298.879 192.438,304.276 187.842,309.400 189.242 M158.154 190.092 C 167.964 193.023,167.271 216.341,157.329 217.832 C 154.037 218.325,150.341 217.169,147.900 214.881 L 146.800 213.850 146.800 204.299 C 146.800 193.678,146.769 193.817,149.541 192.038 C 152.930 189.863,155.469 189.290,158.154 190.092 " stroke="none" fill="#080808" fill-rule="evenodd"></path><path id="path2" d="M146.950 173.800 C 146.951 176.220,147.016 177.158,147.096 175.885 C 147.176 174.612,147.175 172.632,147.094 171.485 C 147.014 170.338,146.949 171.380,146.950 173.800 M279.297 193.867 C 279.202 215.847,279.261 217.600,280.092 217.600 C 280.347 217.600,280.332 217.401,280.052 217.063 C 279.739 216.686,279.575 209.812,279.500 193.963 L 279.393 171.400 279.297 193.867 M135.616 172.581 C 135.102 173.200,135.401 174.800,136.030 174.800 C 136.237 174.800,136.180 174.429,135.903 173.976 C 135.474 173.272,135.514 173.067,136.176 172.576 C 136.604 172.259,136.761 172.000,136.525 172.000 C 136.290 172.000,135.881 172.261,135.616 172.581 M140.700 175.630 C 141.350 176.319,141.432 215.619,140.786 216.826 C 140.519 217.325,140.513 217.600,140.768 217.600 C 141.885 217.600,141.917 175.624,140.800 175.283 C 140.316 175.135,140.296 175.202,140.700 175.630 M273.781 191.400 C 273.781 199.760,273.834 203.237,273.899 199.126 C 273.964 195.016,273.964 188.176,273.900 183.926 C 273.835 179.677,273.782 183.040,273.781 191.400 M364.950 178.187 C 364.826 178.510,364.817 179.005,364.931 179.287 C 365.044 179.569,365.151 179.410,365.168 178.933 C 365.186 178.457,365.425 177.976,365.700 177.865 C 366.092 177.707,366.089 177.656,365.687 177.632 C 365.406 177.614,365.074 177.864,364.950 178.187 M146.484 184.713 C 146.387 191.796,146.606 192.225,149.087 189.790 L 150.600 188.306 149.149 189.414 C 147.002 191.053,147.017 191.084,146.784 184.600 L 146.567 178.600 146.484 184.713 M368.978 183.800 L 369.000 187.400 373.663 187.600 C 376.228 187.710,378.242 187.665,378.139 187.500 C 378.037 187.335,375.990 187.200,373.591 187.200 L 369.230 187.200 369.093 183.700 L 368.955 180.200 368.978 183.800 M364.222 182.222 C 364.072 183.025,364.028 183.762,364.126 183.860 C 364.224 183.957,364.427 183.381,364.578 182.578 C 364.728 181.775,364.772 181.038,364.674 180.940 C 364.576 180.843,364.373 181.419,364.222 182.222 M41.600 182.437 C 41.600 182.710,41.718 182.815,41.863 182.670 C 42.008 182.525,42.397 182.630,42.728 182.903 C 43.221 183.310,43.294 183.291,43.132 182.800 C 42.887 182.059,41.600 181.755,41.600 182.437 M239.200 182.437 C 239.200 182.710,239.318 182.815,239.463 182.670 C 239.608 182.525,239.997 182.630,240.328 182.903 C 240.821 183.310,240.894 183.291,240.732 182.800 C 240.487 182.059,239.200 181.755,239.200 182.437 M94.500 186.276 C 94.885 186.376,95.515 186.376,95.900 186.276 C 96.285 186.175,95.970 186.093,95.200 186.093 C 94.430 186.093,94.115 186.175,94.500 186.276 M115.300 186.276 C 115.685 186.376,116.315 186.376,116.700 186.276 C 117.085 186.175,116.770 186.093,116.000 186.093 C 115.230 186.093,114.915 186.175,115.300 186.276 M157.105 186.283 C 157.602 186.379,158.322 186.375,158.705 186.275 C 159.087 186.175,158.680 186.096,157.800 186.101 C 156.920 186.105,156.607 186.187,157.105 186.283 M307.105 186.283 C 307.602 186.379,308.322 186.375,308.705 186.275 C 309.087 186.175,308.680 186.096,307.800 186.101 C 306.920 186.105,306.607 186.187,307.105 186.283 M187.083 187.086 C 187.871 187.232,187.981 187.537,188.109 189.925 L 188.252 192.600 188.226 189.800 C 188.201 187.098,188.165 186.999,187.200 186.961 C 186.365 186.929,186.346 186.950,187.083 187.086 M207.200 186.955 C 207.200 187.040,207.730 187.187,208.379 187.282 C 209.027 187.377,209.467 187.308,209.355 187.128 C 209.157 186.807,207.200 186.650,207.200 186.955 M88.300 187.829 C 86.749 188.670,86.925 188.961,88.500 188.159 C 90.008 187.393,90.275 187.194,89.767 187.216 C 89.565 187.225,88.905 187.501,88.300 187.829 M180.900 187.476 C 181.285 187.576,181.915 187.576,182.300 187.476 C 182.685 187.375,182.370 187.293,181.600 187.293 C 180.830 187.293,180.515 187.375,180.900 187.476 M202.500 187.476 C 202.885 187.576,203.515 187.576,203.900 187.476 C 204.285 187.375,203.970 187.293,203.200 187.293 C 202.430 187.293,202.115 187.375,202.500 187.476 M314.200 187.862 C 314.860 188.208,316.120 189.146,316.999 189.946 L 318.599 191.400 317.199 189.866 C 315.893 188.434,314.056 187.179,313.320 187.216 C 313.144 187.225,313.540 187.515,314.200 187.862 M177.845 187.928 C 177.733 188.108,178.173 188.177,178.821 188.082 C 179.470 187.987,180.000 187.840,180.000 187.755 C 180.000 187.450,178.043 187.607,177.845 187.928 M199.445 187.928 C 199.333 188.108,199.773 188.177,200.421 188.082 C 201.070 187.987,201.600 187.840,201.600 187.755 C 201.600 187.450,199.643 187.607,199.445 187.928 M166.041 189.778 C 166.833 190.670,167.778 191.845,168.141 192.389 C 168.503 192.933,168.800 193.166,168.800 192.908 C 168.800 192.649,167.855 191.474,166.700 190.296 C 165.545 189.119,165.248 188.885,166.041 189.778 M343.358 189.300 C 342.131 190.629,340.697 192.522,341.463 191.800 C 342.317 190.995,344.888 188.000,344.725 188.000 C 344.633 188.000,344.017 188.585,343.358 189.300 M82.093 190.000 C 82.093 190.770,82.175 191.085,82.276 190.700 C 82.376 190.315,82.376 189.685,82.276 189.300 C 82.175 188.915,82.093 189.230,82.093 190.000 M84.443 190.600 C 83.284 191.590,82.484 192.392,82.667 192.382 C 83.033 192.362,87.108 188.800,86.765 188.800 C 86.648 188.800,85.603 189.610,84.443 190.600 M307.600 189.200 C 308.150 189.376,308.960 189.520,309.400 189.520 C 310.033 189.520,309.992 189.454,309.200 189.200 C 308.650 189.024,307.840 188.880,307.400 188.880 C 306.767 188.880,306.808 188.946,307.600 189.200 M338.901 190.200 C 338.905 191.080,338.987 191.393,339.083 190.895 C 339.179 190.398,339.175 189.678,339.075 189.295 C 338.975 188.913,338.896 189.320,338.901 190.200 M154.296 189.935 C 153.909 190.088,154.676 190.213,156.000 190.213 C 157.324 190.213,158.091 190.088,157.704 189.935 C 157.317 189.782,156.550 189.656,156.000 189.656 C 155.450 189.656,154.683 189.782,154.296 189.935 M357.361 190.490 C 357.427 190.822,358.451 191.070,360.294 191.200 C 361.851 191.310,363.042 191.265,362.939 191.100 C 362.837 190.935,361.608 190.800,360.210 190.800 C 358.811 190.800,357.575 190.615,357.463 190.390 C 357.351 190.165,357.306 190.210,357.361 190.490 M104.494 191.284 C 103.620 192.157,103.603 192.158,102.983 191.384 C 102.378 190.627,102.371 190.631,102.792 191.500 C 103.390 192.735,103.940 192.641,105.149 191.100 C 105.914 190.124,105.552 190.226,104.494 191.284 M312.794 191.403 C 314.387 193.321,314.521 193.445,314.086 192.596 C 313.859 192.153,313.252 191.434,312.737 190.998 C 311.833 190.234,311.835 190.248,312.794 191.403 M353.234 191.753 L 352.269 193.000 353.413 191.912 C 354.043 191.314,354.477 190.753,354.379 190.665 C 354.280 190.577,353.765 191.067,353.234 191.753 M373.400 190.800 L 368.600 191.039 373.276 191.120 C 376.053 191.167,378.053 191.037,378.200 190.800 C 378.336 190.580,378.392 190.436,378.324 190.480 C 378.256 190.525,376.040 190.669,373.400 190.800 M91.305 191.087 C 91.914 191.179,92.814 191.177,93.305 191.082 C 93.797 190.987,93.300 190.911,92.200 190.914 C 91.100 190.917,90.697 190.995,91.305 191.087 M112.505 191.087 C 113.114 191.179,114.014 191.177,114.505 191.082 C 114.997 190.987,114.500 190.911,113.400 190.914 C 112.300 190.917,111.897 190.995,112.505 191.087 M95.400 191.768 C 95.840 192.129,96.537 192.823,96.949 193.312 L 97.698 194.200 97.120 193.229 C 96.802 192.695,96.105 192.001,95.571 191.686 C 94.645 191.139,94.637 191.143,95.400 191.768 M343.758 192.500 C 343.098 193.215,342.318 194.160,342.024 194.600 C 341.730 195.040,342.158 194.636,342.976 193.702 C 343.793 192.769,344.763 191.829,345.131 191.615 C 345.499 191.400,345.610 191.219,345.378 191.212 C 345.147 191.205,344.417 191.785,343.758 192.500 M118.255 193.400 C 119.180 194.979,119.200 195.003,119.200 194.511 C 119.200 194.279,118.829 193.664,118.376 193.144 L 117.553 192.200 118.255 193.400 M294.902 192.900 C 294.336 193.615,293.540 195.200,293.746 195.200 C 293.842 195.200,294.293 194.570,294.747 193.800 C 295.573 192.401,295.649 191.957,294.902 192.900 M349.700 193.076 C 350.085 193.176,350.715 193.176,351.100 193.076 C 351.485 192.975,351.170 192.893,350.400 192.893 C 349.630 192.893,349.315 192.975,349.700 193.076 M83.468 194.729 L 82.386 195.858 82.500 206.029 L 82.614 216.200 82.707 206.022 L 82.800 195.844 83.875 194.722 C 84.466 194.105,84.860 193.600,84.750 193.600 C 84.640 193.600,84.063 194.108,83.468 194.729 M124.914 196.200 C 124.917 197.300,124.995 197.703,125.087 197.095 C 125.179 196.486,125.177 195.586,125.082 195.095 C 124.987 194.603,124.911 195.100,124.914 196.200 M146.893 204.025 L 146.800 213.850 147.900 214.876 C 148.505 215.441,149.450 216.108,150.000 216.359 C 150.849 216.747,150.886 216.739,150.246 216.308 C 149.832 216.029,148.980 215.382,148.353 214.870 L 147.214 213.941 147.100 204.070 L 146.985 194.200 146.893 204.025 M97.873 196.400 C 98.004 197.390,98.176 198.275,98.256 198.367 C 98.557 198.714,98.328 196.164,97.990 195.400 C 97.753 194.866,97.714 195.198,97.873 196.400 M119.200 206.681 C 119.090 212.665,119.138 217.423,119.307 217.254 C 119.476 217.085,119.565 212.188,119.506 206.373 L 119.399 195.800 119.200 206.681 M76.973 206.000 C 76.973 211.390,77.030 213.595,77.099 210.900 C 77.168 208.205,77.168 203.795,77.099 201.100 C 77.030 198.405,76.973 200.610,76.973 206.000 M333.773 206.000 C 333.773 211.390,333.830 213.595,333.899 210.900 C 333.968 208.205,333.968 203.795,333.899 201.100 C 333.830 198.405,333.773 200.610,333.773 206.000 M164.056 197.200 C 164.056 197.530,164.211 198.160,164.400 198.600 C 164.617 199.104,164.744 199.178,164.744 198.800 C 164.744 198.470,164.589 197.840,164.400 197.400 C 164.183 196.896,164.056 196.822,164.056 197.200 M298.101 199.400 C 298.105 200.280,298.187 200.593,298.283 200.095 C 298.379 199.598,298.375 198.878,298.275 198.495 C 298.175 198.113,298.096 198.520,298.101 199.400 M314.800 198.739 C 314.800 198.999,314.215 199.568,313.500 200.004 C 312.785 200.440,312.415 200.798,312.678 200.799 C 313.396 200.801,315.445 198.913,315.100 198.567 C 314.935 198.402,314.800 198.479,314.800 198.739 M339.449 199.815 C 339.312 200.173,339.238 203.916,339.284 208.133 L 339.367 215.800 339.584 207.600 C 339.817 198.752,339.819 198.853,339.449 199.815 M170.893 200.800 C 170.893 201.570,170.975 201.885,171.076 201.500 C 171.176 201.115,171.176 200.485,171.076 200.100 C 170.975 199.715,170.893 200.030,170.893 200.800 M48.800 201.200 C 48.800 202.361,35.779 202.459,35.476 201.300 C 35.338 200.773,35.281 200.823,35.246 201.500 L 35.200 202.400 42.200 202.400 L 49.200 202.400 49.200 201.400 C 49.200 200.850,49.110 200.400,49.000 200.400 C 48.890 200.400,48.800 200.760,48.800 201.200 M246.400 201.200 C 246.400 202.361,233.379 202.459,233.076 201.300 C 232.938 200.773,232.881 200.823,232.846 201.500 L 232.800 202.400 239.800 202.400 L 246.800 202.400 246.800 201.400 C 246.800 200.850,246.710 200.400,246.600 200.400 C 246.490 200.400,246.400 200.760,246.400 201.200 M164.934 204.000 C 164.934 205.650,165.005 206.325,165.091 205.500 C 165.178 204.675,165.178 203.325,165.091 202.500 C 165.005 201.675,164.934 202.350,164.934 204.000 M291.734 204.400 C 291.734 206.050,291.805 206.725,291.891 205.900 C 291.978 205.075,291.978 203.725,291.891 202.900 C 291.805 202.075,291.734 202.750,291.734 204.400 M320.400 202.800 C 320.400 203.057,316.544 203.200,309.633 203.200 C 297.329 203.200,297.581 203.159,297.653 205.143 L 297.705 206.600 297.953 205.200 L 298.200 203.800 309.367 203.600 C 317.800 203.449,320.575 203.278,320.700 202.900 C 320.792 202.625,320.762 202.400,320.633 202.400 C 320.505 202.400,320.400 202.580,320.400 202.800 M34.176 205.422 C 33.426 206.023,33.430 206.030,34.274 205.622 C 36.193 204.695,49.875 205.087,50.577 206.089 C 50.920 206.578,51.200 206.786,51.200 206.551 C 51.200 204.738,36.267 203.747,34.176 205.422 M231.776 205.422 C 231.026 206.023,231.030 206.030,231.874 205.622 C 233.793 204.695,247.475 205.087,248.177 206.089 C 248.520 206.578,248.800 206.786,248.800 206.551 C 248.800 204.738,233.867 203.747,231.776 205.422 M292.056 209.200 C 292.056 209.530,292.211 210.160,292.400 210.600 C 292.617 211.104,292.744 211.178,292.744 210.800 C 292.744 210.470,292.589 209.840,292.400 209.400 C 292.183 208.896,292.056 208.822,292.056 209.200 M125.267 213.076 C 125.230 215.318,125.335 217.237,125.500 217.340 C 125.665 217.442,125.751 216.238,125.691 214.663 C 125.494 209.518,125.336 208.924,125.267 213.076 M362.920 212.000 C 362.920 213.210,362.995 213.705,363.087 213.100 C 363.178 212.495,363.178 211.505,363.087 210.900 C 362.995 210.295,362.920 210.790,362.920 212.000 M299.821 212.200 C 300.818 213.953,302.431 215.591,303.800 216.241 C 304.460 216.555,304.642 216.584,304.205 216.306 C 303.173 215.649,300.776 213.275,299.859 212.000 C 299.150 211.016,299.150 211.019,299.821 212.200 M202.629 213.162 L 201.458 214.600 202.809 213.313 C 203.551 212.605,204.078 211.958,203.979 211.875 C 203.881 211.792,203.273 212.371,202.629 213.162 M97.995 214.882 C 97.888 216.357,97.945 217.418,98.122 217.240 C 98.299 217.062,98.386 215.855,98.317 214.558 L 98.190 212.200 97.995 214.882 M182.428 213.233 C 182.444 213.765,182.619 214.560,182.819 215.000 C 183.071 215.558,183.107 215.315,182.938 214.200 C 182.655 212.343,182.387 211.836,182.428 213.233 M319.959 213.286 C 320.392 213.862,320.341 214.160,319.637 215.148 C 319.177 215.794,318.800 216.472,318.800 216.655 C 318.800 216.837,319.269 216.295,319.843 215.450 C 320.844 213.977,320.857 213.888,320.165 213.258 C 319.493 212.644,319.479 212.646,319.959 213.286 M161.426 215.113 C 160.015 216.803,159.988 216.875,161.160 215.800 C 162.271 214.782,163.488 213.170,163.114 213.213 C 163.051 213.220,162.292 214.075,161.426 215.113 M188.800 214.254 C 188.800 214.703,190.259 216.114,191.200 216.575 C 191.530 216.737,191.361 216.513,190.825 216.077 C 190.289 215.641,189.614 214.961,189.325 214.565 C 189.036 214.170,188.800 214.030,188.800 214.254 M199.900 215.029 C 198.405 215.840,198.496 216.178,200.000 215.400 C 200.660 215.059,201.200 214.694,201.200 214.590 C 201.200 214.332,201.157 214.347,199.900 215.029 M294.364 215.133 C 294.580 215.536,295.071 216.121,295.455 216.433 C 295.887 216.784,295.790 216.504,295.201 215.700 C 294.151 214.265,293.757 213.998,294.364 215.133 M315.618 215.450 C 313.736 216.786,313.571 217.018,315.029 216.277 C 315.705 215.934,316.492 215.371,316.778 215.026 C 317.460 214.205,317.277 214.272,315.618 215.450 M167.144 216.300 C 165.993 217.689,165.506 218.400,165.704 218.400 C 165.814 218.400,166.386 217.770,166.973 217.000 C 168.063 215.571,168.195 215.032,167.144 216.300 M30.012 216.251 C 29.993 216.963,31.091 217.684,31.881 217.479 C 32.457 217.330,32.426 217.284,31.720 217.246 C 31.236 217.221,30.656 216.885,30.432 216.500 C 30.208 216.115,30.019 216.003,30.012 216.251 M204.087 216.600 C 204.091 217.040,204.232 217.940,204.400 218.600 C 204.674 219.678,204.706 219.698,204.713 218.800 C 204.717 218.250,204.576 217.350,204.400 216.800 C 204.149 216.016,204.081 215.973,204.087 216.600 M227.612 216.251 C 227.593 216.963,228.691 217.684,229.481 217.479 C 230.057 217.330,230.026 217.284,229.320 217.246 C 228.836 217.221,228.256 216.885,228.032 216.500 C 227.808 216.115,227.619 216.003,227.612 216.251 M306.200 217.181 C 306.968 217.529,309.110 217.756,308.767 217.453 C 308.675 217.372,307.880 217.196,307.000 217.062 C 305.885 216.893,305.642 216.929,306.200 217.181 M310.800 217.200 C 309.433 217.488,309.428 217.495,310.600 217.519 C 311.260 217.533,312.160 217.389,312.600 217.200 C 313.562 216.787,312.764 216.787,310.800 217.200 M378.539 217.502 C 378.684 217.736,378.248 218.393,377.570 218.964 C 376.893 219.534,376.499 220.000,376.694 220.000 C 377.454 220.000,379.281 217.697,378.771 217.382 C 378.468 217.195,378.378 217.241,378.539 217.502 M21.067 217.867 C 20.920 218.013,20.803 218.328,20.806 218.567 C 20.810 218.860,20.907 218.853,21.106 218.546 C 21.268 218.297,21.760 218.003,22.200 217.893 C 22.974 217.699,22.973 217.691,22.167 217.646 C 21.708 217.621,21.213 217.720,21.067 217.867 M34.400 217.755 C 34.400 217.840,34.930 217.987,35.579 218.082 C 36.227 218.177,36.667 218.108,36.555 217.928 C 36.357 217.607,34.400 217.450,34.400 217.755 M48.100 217.865 C 47.825 217.976,47.600 218.685,47.600 219.441 L 47.600 220.814 57.100 220.707 L 66.600 220.600 66.653 219.694 C 66.697 218.940,66.676 218.923,66.525 219.594 C 66.350 220.373,66.041 220.400,57.146 220.400 L 47.947 220.400 48.073 219.302 C 48.172 218.448,48.467 218.147,49.400 217.949 C 50.450 217.727,50.475 217.693,49.600 217.679 C 49.050 217.670,48.375 217.754,48.100 217.865 M64.000 217.755 C 64.000 217.840,64.530 217.987,65.179 218.082 C 65.827 218.177,66.267 218.108,66.155 217.928 C 65.957 217.607,64.000 217.450,64.000 217.755 M73.000 218.000 C 71.981 218.438,73.032 218.438,74.400 218.000 C 75.204 217.743,75.243 217.677,74.600 217.668 C 74.160 217.662,73.440 217.811,73.000 218.000 M107.000 218.107 C 108.142 218.475,108.636 218.875,108.727 219.503 C 108.853 220.381,108.836 220.384,100.927 220.504 L 93.000 220.625 101.000 220.612 C 108.802 220.600,109.003 220.579,109.119 219.765 C 109.270 218.707,108.496 218.061,106.762 217.798 C 105.481 217.604,105.495 217.622,107.000 218.107 M127.600 218.000 C 128.968 218.438,130.019 218.438,129.000 218.000 C 128.560 217.811,127.840 217.662,127.400 217.668 C 126.757 217.677,126.796 217.743,127.600 218.000 M137.400 217.885 C 136.960 217.991,136.435 218.234,136.234 218.425 C 135.928 218.715,138.020 218.308,139.400 217.808 C 139.985 217.596,138.338 217.660,137.400 217.885 M148.012 217.825 C 148.026 218.252,151.295 220.800,151.828 220.800 C 152.021 220.800,151.733 220.502,151.189 220.139 C 150.645 219.775,149.705 219.021,149.100 218.464 C 148.495 217.906,148.006 217.619,148.012 217.825 M154.500 217.887 C 155.105 217.978,156.095 217.978,156.700 217.887 C 157.305 217.795,156.810 217.720,155.600 217.720 C 154.390 217.720,153.895 217.795,154.500 217.887 M211.600 217.827 C 213.383 218.527,214.555 218.795,214.178 218.418 C 213.957 218.197,213.151 217.920,212.388 217.804 C 211.624 217.687,211.270 217.698,211.600 217.827 M218.667 217.867 C 218.520 218.013,218.403 218.328,218.406 218.567 C 218.410 218.860,218.507 218.853,218.706 218.546 C 218.868 218.297,219.360 218.003,219.800 217.893 C 220.574 217.699,220.573 217.691,219.767 217.646 C 219.308 217.621,218.813 217.720,218.667 217.867 M232.000 217.755 C 232.000 217.840,232.530 217.987,233.179 218.082 C 233.827 218.177,234.267 218.108,234.155 217.928 C 233.957 217.607,232.000 217.450,232.000 217.755 M245.700 217.865 C 245.425 217.976,245.200 218.685,245.200 219.441 L 245.200 220.814 254.700 220.707 L 264.200 220.600 264.253 219.694 C 264.297 218.940,264.276 218.923,264.125 219.594 C 263.950 220.373,263.641 220.400,254.746 220.400 L 245.547 220.400 245.673 219.302 C 245.772 218.448,246.067 218.147,247.000 217.949 C 248.050 217.727,248.075 217.693,247.200 217.679 C 246.650 217.670,245.975 217.754,245.700 217.865 M261.600 217.755 C 261.600 217.840,262.130 217.987,262.779 218.082 C 263.427 218.177,263.867 218.108,263.755 217.928 C 263.557 217.607,261.600 217.450,261.600 217.755 M282.800 218.157 C 284.160 218.518,284.631 218.849,284.727 219.509 C 284.853 220.382,284.837 220.384,276.327 220.504 L 267.800 220.625 276.400 220.613 L 285.000 220.600 285.124 219.525 C 285.248 218.453,283.509 217.524,281.600 217.642 C 281.270 217.662,281.810 217.894,282.800 218.157 M330.038 217.949 C 328.865 218.277,328.185 219.263,328.524 220.146 C 328.745 220.723,329.768 220.800,337.187 220.800 L 345.600 220.800 345.540 219.500 C 345.484 218.290,345.469 218.276,345.313 219.300 L 345.147 220.400 336.946 220.400 L 328.744 220.400 328.872 219.517 C 328.969 218.847,329.433 218.520,330.800 218.157 C 331.790 217.894,332.240 217.679,331.800 217.679 C 331.360 217.679,330.567 217.801,330.038 217.949 M342.400 218.000 C 342.950 218.176,343.760 218.320,344.200 218.320 C 344.833 218.320,344.792 218.254,344.000 218.000 C 343.450 217.824,342.640 217.680,342.200 217.680 C 341.567 217.680,341.608 217.746,342.400 218.000 M371.900 217.882 C 372.395 217.978,373.205 217.978,373.700 217.882 C 374.195 217.787,373.790 217.709,372.800 217.709 C 371.810 217.709,371.405 217.787,371.900 217.882 M114.416 218.581 C 112.911 220.394,113.706 220.599,122.305 220.613 L 130.401 220.625 122.400 220.504 C 114.692 220.388,114.400 220.354,114.400 219.579 C 114.400 219.118,114.785 218.620,115.300 218.412 C 115.909 218.168,115.990 218.043,115.549 218.025 C 115.191 218.011,114.681 218.261,114.416 218.581 M185.200 219.400 C 185.946 220.170,186.647 220.800,186.757 220.800 C 186.867 220.800,186.346 220.170,185.600 219.400 C 184.854 218.630,184.153 218.000,184.043 218.000 C 183.933 218.000,184.454 218.630,185.200 219.400 M71.660 219.508 L 71.600 220.817 79.700 220.708 L 87.800 220.600 87.839 219.600 C 87.872 218.730,87.856 218.717,87.712 219.500 C 87.547 220.397,87.518 220.400,79.800 220.400 L 72.053 220.400 71.887 219.300 C 71.732 218.283,71.715 218.298,71.660 219.508 M197.600 220.000 C 196.830 220.422,196.344 220.774,196.520 220.783 C 196.944 220.805,199.200 219.632,199.200 219.390 C 199.200 219.128,199.177 219.137,197.600 220.000 M365.600 219.964 C 366.150 220.414,366.780 220.783,367.000 220.785 C 367.428 220.788,366.705 220.234,365.400 219.560 C 364.869 219.285,364.936 219.421,365.600 219.964 M24.700 220.698 C 26.955 220.770,30.645 220.770,32.900 220.698 C 35.155 220.627,33.310 220.569,28.800 220.569 C 24.290 220.569,22.445 220.627,24.700 220.698 M222.300 220.698 C 224.555 220.770,228.245 220.770,230.500 220.698 C 232.755 220.627,230.910 220.569,226.400 220.569 C 221.890 220.569,220.045 220.627,222.300 220.698 M141.305 221.087 C 141.914 221.179,142.814 221.177,143.305 221.082 C 143.797 220.987,143.300 220.911,142.200 220.914 C 141.100 220.917,140.697 220.995,141.305 221.087 M205.130 221.286 C 205.285 221.443,206.579 221.414,208.006 221.221 L 210.600 220.871 207.723 220.935 C 206.141 220.971,204.974 221.129,205.130 221.286 M302.600 221.200 C 303.040 221.389,303.670 221.544,304.000 221.544 C 304.378 221.544,304.304 221.417,303.800 221.200 C 303.360 221.011,302.730 220.856,302.400 220.856 C 302.022 220.856,302.096 220.983,302.600 221.200 M310.800 221.200 C 309.976 221.464,309.941 221.526,310.600 221.554 C 311.040 221.573,311.670 221.413,312.000 221.200 C 312.701 220.747,312.214 220.747,310.800 221.200 M368.715 221.272 C 369.092 221.421,370.120 221.544,371.000 221.544 C 371.880 221.544,372.908 221.421,373.285 221.272 C 373.662 221.122,372.634 221.000,371.000 221.000 C 369.366 221.000,368.338 221.122,368.715 221.272 " stroke="none" fill="#747474" fill-rule="evenodd"></path><path id="path3" d="M144.600 169.191 C 144.009 169.438,144.241 169.513,145.487 169.478 C 146.451 169.451,146.965 169.298,146.687 169.122 C 146.090 168.742,145.636 168.757,144.600 169.191 M277.400 169.234 C 276.751 169.541,276.815 169.570,277.738 169.389 C 278.393 169.260,279.158 169.385,279.538 169.683 C 280.130 170.145,280.142 170.126,279.651 169.500 C 279.044 168.725,278.590 168.672,277.400 169.234 M142.000 170.000 C 141.176 170.264,141.141 170.326,141.800 170.354 C 142.240 170.373,142.870 170.213,143.200 170.000 C 143.901 169.547,143.414 169.547,142.000 170.000 M147.328 172.400 C 147.328 173.830,147.401 174.415,147.489 173.700 C 147.578 172.985,147.578 171.815,147.489 171.100 C 147.401 170.385,147.328 170.970,147.328 172.400 M269.000 171.600 C 268.496 171.817,268.422 171.944,268.800 171.944 C 269.130 171.944,269.760 171.789,270.200 171.600 C 270.704 171.383,270.778 171.256,270.400 171.256 C 270.070 171.256,269.440 171.411,269.000 171.600 M267.600 172.367 C 267.600 172.569,267.506 172.979,267.391 173.279 C 267.276 173.578,267.466 174.178,267.813 174.611 C 268.434 175.387,268.437 175.386,268.043 174.565 C 267.822 174.105,267.743 173.340,267.867 172.865 C 267.992 172.389,267.982 172.000,267.847 172.000 C 267.711 172.000,267.600 172.165,267.600 172.367 M43.879 173.496 C 45.950 173.614,46.400 173.771,46.615 174.449 C 46.757 174.895,46.961 175.172,47.069 175.064 C 47.957 174.177,46.226 173.205,43.886 173.277 L 41.400 173.354 43.879 173.496 M241.479 173.496 C 243.550 173.614,244.000 173.771,244.215 174.449 C 244.357 174.895,244.561 175.172,244.669 175.064 C 245.557 174.177,243.826 173.205,241.486 173.277 L 239.000 173.354 241.479 173.496 M279.786 195.200 C 279.786 206.970,279.837 211.785,279.900 205.900 C 279.962 200.015,279.962 190.385,279.900 184.500 C 279.837 178.615,279.786 183.430,279.786 195.200 M138.800 175.560 L 140.600 175.800 140.806 195.000 L 141.012 214.200 141.106 195.180 C 141.210 174.216,141.327 175.160,138.620 175.260 L 137.000 175.320 138.800 175.560 M271.400 175.557 L 273.000 175.800 273.104 195.955 C 273.212 216.994,273.213 216.982,271.471 217.322 C 270.703 217.471,270.720 217.497,271.620 217.546 C 273.634 217.653,273.600 218.019,273.600 196.163 C 273.600 173.553,273.792 175.135,271.067 175.257 C 269.913 175.308,269.943 175.335,271.400 175.557 M365.062 177.500 C 364.960 177.665,365.922 177.800,367.200 177.800 C 368.478 177.800,369.440 177.665,369.338 177.500 C 369.236 177.335,368.274 177.200,367.200 177.200 C 366.126 177.200,365.164 177.335,365.062 177.500 M364.240 180.040 C 364.093 180.957,364.052 181.785,364.147 181.880 C 364.242 181.976,364.446 181.310,364.600 180.400 C 364.754 179.490,364.796 178.662,364.693 178.560 C 364.590 178.457,364.387 179.123,364.240 180.040 M369.278 184.300 L 369.200 187.200 373.700 187.115 L 378.200 187.030 373.918 186.902 L 369.636 186.773 369.496 184.087 L 369.357 181.400 369.278 184.300 M41.751 183.384 C 41.614 183.742,41.613 184.147,41.751 184.284 C 41.888 184.421,42.006 184.188,42.013 183.767 C 42.025 183.025,42.046 183.026,42.649 183.800 C 43.245 184.566,43.266 184.567,43.136 183.833 C 42.959 182.837,42.071 182.549,41.751 183.384 M239.351 183.384 C 239.214 183.742,239.213 184.147,239.351 184.284 C 239.488 184.421,239.606 184.188,239.613 183.767 C 239.625 183.025,239.646 183.026,240.249 183.800 C 240.845 184.566,240.866 184.567,240.736 183.833 C 240.559 182.837,239.671 182.549,239.351 183.384 M363.440 184.440 C 363.293 185.357,363.252 186.185,363.347 186.280 C 363.442 186.376,363.646 185.710,363.800 184.800 C 363.954 183.890,363.996 183.062,363.893 182.960 C 363.790 182.857,363.587 183.523,363.440 184.440 M92.476 185.940 C 91.968 186.083,93.104 186.200,95.000 186.200 C 96.896 186.200,98.032 186.083,97.524 185.940 C 97.016 185.797,95.880 185.680,95.000 185.680 C 94.120 185.680,92.984 185.797,92.476 185.940 M113.400 185.959 C 112.716 186.110,113.800 186.218,115.922 186.212 C 117.970 186.205,119.230 186.083,118.722 185.940 C 117.547 185.608,114.949 185.618,113.400 185.959 M155.000 185.959 C 154.316 186.110,155.400 186.218,157.522 186.212 C 159.570 186.205,160.830 186.083,160.322 185.940 C 159.147 185.608,156.549 185.618,155.000 185.959 M304.876 185.940 C 304.368 186.083,305.684 186.200,307.800 186.200 C 309.916 186.200,311.232 186.083,310.724 185.940 C 310.216 185.797,308.900 185.680,307.800 185.680 C 306.700 185.680,305.384 185.797,304.876 185.940 M347.874 185.943 C 347.458 186.106,348.143 186.223,349.474 186.214 C 351.314 186.203,352.092 186.405,353.200 187.184 C 354.214 187.897,354.434 187.963,354.000 187.422 C 352.812 185.944,349.747 185.204,347.874 185.943 M80.400 186.283 C 80.950 186.378,81.625 186.748,81.900 187.105 C 82.350 187.688,82.400 187.690,82.400 187.119 C 82.400 186.401,81.546 185.974,80.267 186.054 C 79.518 186.102,79.536 186.133,80.400 186.283 M337.360 186.347 C 337.998 186.486,338.661 186.960,338.832 187.400 C 339.134 188.174,339.145 188.172,339.172 187.343 C 339.202 186.425,338.465 185.971,337.067 186.047 C 336.411 186.083,336.483 186.156,337.360 186.347 M100.035 187.312 C 100.779 187.813,101.793 188.938,102.287 189.812 C 103.282 191.568,103.542 191.421,102.614 189.628 C 101.982 188.404,99.806 186.400,99.110 186.400 C 98.875 186.400,99.291 186.810,100.035 187.312 M109.361 187.395 C 107.546 188.299,102.760 192.000,103.406 192.000 C 103.555 192.000,104.500 191.276,105.506 190.390 C 106.512 189.505,108.429 188.250,109.767 187.601 C 111.105 186.952,112.010 186.416,111.779 186.410 C 111.547 186.405,110.459 186.848,109.361 187.395 M151.900 187.029 C 150.349 187.870,150.525 188.161,152.100 187.359 C 153.608 186.593,153.875 186.394,153.367 186.416 C 153.165 186.425,152.505 186.701,151.900 187.029 M162.000 186.594 C 162.000 186.687,162.615 187.054,163.368 187.411 C 165.415 188.383,167.902 191.101,169.213 193.800 C 170.448 196.340,170.808 196.551,169.802 194.144 C 168.885 191.948,166.585 189.027,164.910 187.932 C 163.363 186.920,162.000 186.293,162.000 186.594 M183.000 186.817 C 181.374 187.055,181.674 187.099,184.600 187.055 L 188.200 187.000 188.086 198.400 C 188.024 204.670,188.114 210.382,188.286 211.094 C 188.459 211.805,188.600 206.765,188.600 199.894 C 188.600 193.022,188.454 187.175,188.276 186.900 C 187.932 186.368,186.258 186.342,183.000 186.817 M204.800 186.812 C 203.657 186.994,204.204 187.031,206.300 186.913 C 208.870 186.769,209.610 186.847,209.644 187.264 C 209.668 187.559,209.651 194.309,209.605 202.265 C 209.515 218.119,209.451 217.684,211.874 217.564 C 212.273 217.544,211.999 217.355,211.264 217.143 L 209.927 216.758 210.049 202.078 C 210.115 194.005,210.031 187.174,209.861 186.899 C 209.535 186.371,207.768 186.340,204.800 186.812 M86.586 188.549 C 85.484 189.291,84.339 190.191,84.042 190.549 C 83.302 191.441,82.887 191.365,82.682 190.300 C 82.530 189.512,82.502 189.534,82.454 190.476 C 82.379 191.975,82.920 192.149,84.019 190.980 C 84.533 190.433,85.819 189.429,86.877 188.751 C 88.537 187.685,89.106 187.200,88.695 187.200 C 88.637 187.200,87.688 187.807,86.586 188.549 M122.297 188.035 C 122.791 188.591,123.562 189.755,124.011 190.623 C 124.481 191.529,124.715 191.775,124.562 191.200 C 124.245 190.014,123.122 188.348,122.119 187.577 C 121.689 187.247,121.761 187.431,122.297 188.035 M177.216 187.970 C 176.935 188.495,176.934 189.037,177.211 189.670 C 177.618 190.599,177.618 190.599,177.426 189.597 C 177.178 188.305,177.556 187.726,178.800 187.495 C 179.794 187.310,179.793 187.309,178.714 187.254 C 178.013 187.219,177.482 187.473,177.216 187.970 M198.880 187.680 C 198.290 188.270,198.250 189.860,198.816 190.210 C 199.079 190.372,199.151 190.124,199.012 189.534 C 198.730 188.338,199.145 187.728,200.400 187.495 L 201.400 187.309 200.380 187.254 C 199.819 187.225,199.144 187.416,198.880 187.680 M342.858 189.376 C 341.726 190.573,340.800 191.683,340.800 191.843 C 340.800 192.003,340.856 192.058,340.924 191.967 C 340.992 191.875,342.008 190.765,343.182 189.500 C 344.356 188.235,345.226 187.200,345.116 187.200 C 345.006 187.200,343.990 188.179,342.858 189.376 M357.376 187.830 C 356.949 188.176,356.864 188.321,357.186 188.153 C 357.509 187.984,358.409 187.721,359.186 187.569 C 360.592 187.293,360.593 187.292,359.376 187.246 C 358.704 187.221,357.804 187.483,357.376 187.830 M378.520 189.200 C 378.520 190.410,378.595 190.905,378.687 190.300 C 378.778 189.695,378.778 188.705,378.687 188.100 C 378.595 187.495,378.520 187.990,378.520 189.200 M73.800 188.778 C 72.920 189.195,72.313 189.550,72.451 189.568 C 72.840 189.618,75.600 188.414,75.600 188.195 C 75.600 187.927,75.599 187.927,73.800 188.778 M148.629 189.211 C 147.765 189.865,147.225 190.395,147.429 190.389 C 147.807 190.378,150.765 188.021,150.400 188.022 C 150.290 188.022,149.493 188.557,148.629 189.211 M330.600 188.778 C 329.720 189.195,329.113 189.550,329.251 189.568 C 329.640 189.618,332.400 188.414,332.400 188.195 C 332.400 187.927,332.399 187.927,330.600 188.778 M354.400 189.711 C 354.400 190.432,354.116 191.467,353.768 192.011 L 353.136 193.000 353.968 192.056 C 354.697 191.228,355.186 188.400,354.600 188.400 C 354.490 188.400,354.400 188.990,354.400 189.711 M296.315 190.719 C 295.321 191.781,294.299 193.088,294.043 193.625 L 293.577 194.600 294.275 193.600 C 294.659 193.050,295.748 191.808,296.694 190.840 C 297.640 189.873,298.348 189.015,298.268 188.934 C 298.187 188.854,297.308 189.657,296.315 190.719 M316.800 189.022 C 316.800 189.144,317.362 189.819,318.050 190.522 L 319.300 191.800 318.202 190.300 C 317.150 188.861,316.800 188.542,316.800 189.022 M71.043 190.233 C 70.207 192.410,70.763 193.133,73.467 193.389 L 75.400 193.572 73.300 193.156 C 71.100 192.719,70.389 191.371,71.680 190.080 C 72.001 189.759,72.015 189.600,71.723 189.600 C 71.482 189.600,71.176 189.885,71.043 190.233 M327.843 190.233 C 327.007 192.410,327.563 193.133,330.267 193.389 L 332.200 193.572 330.100 193.156 C 327.900 192.719,327.189 191.371,328.480 190.080 C 328.801 189.759,328.815 189.600,328.523 189.600 C 328.282 189.600,327.976 189.885,327.843 190.233 M339.276 191.200 C 339.197 193.441,339.631 194.282,340.308 193.199 C 340.702 192.567,340.686 192.469,340.219 192.648 C 339.792 192.812,339.610 192.431,339.495 191.133 L 339.340 189.400 339.276 191.200 M178.600 190.800 C 179.040 190.989,179.760 191.144,180.200 191.144 L 181.000 191.144 180.200 190.800 C 179.760 190.611,179.040 190.456,178.600 190.456 L 177.800 190.456 178.600 190.800 M200.200 190.800 C 200.640 190.989,201.360 191.138,201.800 191.132 C 202.443 191.123,202.404 191.057,201.600 190.800 C 200.232 190.362,199.181 190.362,200.200 190.800 M301.600 192.048 C 300.720 192.955,300.000 193.890,300.000 194.126 C 300.000 194.362,300.416 193.992,300.923 193.304 C 301.431 192.616,302.286 191.687,302.823 191.239 C 303.361 190.792,303.665 190.421,303.500 190.413 C 303.334 190.406,302.479 191.142,301.600 192.048 M89.200 191.595 C 88.791 191.855,89.110 191.899,90.200 191.732 C 92.177 191.429,92.514 191.198,90.967 191.206 C 90.325 191.209,89.530 191.384,89.200 191.595 M92.433 191.343 C 92.876 191.722,95.217 191.951,94.996 191.594 C 94.862 191.377,94.193 191.200,93.510 191.200 C 92.826 191.200,92.342 191.264,92.433 191.343 M110.400 191.595 C 109.991 191.855,110.310 191.899,111.400 191.732 C 113.377 191.429,113.714 191.198,112.167 191.206 C 111.525 191.209,110.730 191.384,110.400 191.595 M113.600 191.356 C 113.600 191.442,114.217 191.585,114.972 191.673 C 115.727 191.761,116.256 191.690,116.148 191.516 C 115.955 191.203,113.600 191.055,113.600 191.356 M149.344 192.539 L 147.400 193.879 147.400 203.988 L 147.400 214.097 148.800 215.100 L 150.200 216.103 148.896 214.952 L 147.593 213.800 147.596 203.954 L 147.600 194.109 149.100 193.102 C 149.925 192.548,150.960 191.899,151.400 191.659 C 151.840 191.420,151.995 191.219,151.744 191.212 C 151.493 191.205,150.413 191.803,149.344 192.539 M160.200 191.768 C 160.640 192.129,161.337 192.823,161.749 193.312 L 162.498 194.200 161.920 193.229 C 161.602 192.695,160.905 192.001,160.371 191.686 C 159.445 191.139,159.437 191.143,160.200 191.768 M181.902 198.700 C 182.092 212.580,182.232 213.870,182.316 202.500 C 182.362 196.285,182.265 191.200,182.100 191.200 C 181.935 191.199,181.846 194.574,181.902 198.700 M203.158 191.529 C 204.105 192.191,203.565 211.707,202.567 212.911 L 201.830 213.800 202.788 212.916 L 203.746 212.032 203.773 201.752 C 203.796 192.939,203.714 191.448,203.200 191.305 C 202.701 191.167,202.694 191.205,203.158 191.529 M344.046 192.754 C 343.174 193.626,342.257 194.758,342.008 195.270 C 341.693 195.917,341.833 195.835,342.467 195.000 C 342.968 194.340,343.896 193.306,344.529 192.702 L 345.681 191.603 346.877 192.455 C 348.190 193.390,351.148 193.893,352.124 193.347 C 352.530 193.119,351.963 193.000,350.472 193.000 C 348.745 193.000,347.892 192.780,346.916 192.084 L 345.632 191.168 344.046 192.754 M362.400 203.767 C 362.510 210.679,362.761 216.484,362.957 216.667 C 363.166 216.861,363.207 216.437,363.057 215.650 C 362.916 214.907,362.800 209.103,362.800 202.750 C 362.800 196.398,362.665 191.200,362.500 191.200 C 362.335 191.199,362.290 196.855,362.400 203.767 M369.067 191.467 C 368.717 191.817,368.775 213.594,369.128 214.488 C 369.278 214.866,369.345 209.933,369.277 203.526 C 369.179 194.265,369.261 191.808,369.677 191.544 C 369.969 191.359,370.008 191.210,369.767 191.206 C 369.528 191.203,369.213 191.320,369.067 191.467 M107.356 193.042 C 103.742 195.463,104.000 194.492,104.000 205.644 C 104.000 216.521,104.175 217.625,105.890 217.554 C 106.713 217.519,106.793 217.459,106.200 217.320 C 104.491 216.920,104.400 216.336,104.400 205.757 L 104.400 195.667 105.900 194.490 C 106.725 193.843,107.940 193.025,108.600 192.673 C 109.260 192.320,109.600 192.025,109.356 192.016 C 109.112 192.007,108.212 192.469,107.356 193.042 M125.072 194.200 C 125.199 195.300,125.369 196.275,125.451 196.367 C 125.732 196.682,125.520 194.199,125.180 193.200 C 124.951 192.526,124.916 192.851,125.072 194.200 M76.200 205.320 L 76.200 216.964 75.200 217.242 C 74.362 217.475,74.333 217.527,75.020 217.560 C 76.735 217.644,76.800 217.195,76.800 205.344 C 76.800 199.131,76.665 193.964,76.500 193.862 C 76.335 193.760,76.200 198.916,76.200 205.320 M333.112 205.392 L 333.223 217.145 332.207 217.321 C 331.254 217.486,331.260 217.494,332.295 217.449 L 333.400 217.400 333.506 205.826 C 333.565 199.461,333.475 194.114,333.306 193.946 C 333.138 193.777,333.050 198.928,333.112 205.392 M83.454 195.140 C 82.863 195.794,82.797 196.891,82.900 204.440 L 83.017 213.000 83.108 204.431 C 83.187 197.105,83.296 195.757,83.862 195.131 C 84.226 194.729,84.434 194.400,84.324 194.400 C 84.214 194.400,83.822 194.733,83.454 195.140 M118.682 196.021 C 118.808 196.999,118.975 197.875,119.055 197.967 C 119.381 198.342,119.160 195.355,118.821 194.821 C 118.584 194.446,118.535 194.870,118.682 196.021 M163.130 195.982 C 163.498 196.851,163.856 197.404,163.924 197.209 C 164.050 196.849,162.913 194.400,162.619 194.400 C 162.531 194.400,162.761 195.112,163.130 195.982 M314.600 196.598 C 314.600 197.765,314.735 198.638,314.900 198.537 C 315.285 198.301,315.280 195.545,314.894 194.938 C 314.732 194.684,314.600 195.431,314.600 196.598 M320.936 199.241 C 320.914 203.987,321.902 203.600,309.809 203.600 C 298.165 203.600,297.983 203.624,298.040 205.143 L 298.080 206.200 298.358 205.200 L 298.636 204.200 309.693 204.094 C 322.082 203.975,320.930 204.300,321.348 200.800 C 321.466 199.810,321.426 198.280,321.258 197.400 C 321.015 196.124,320.949 196.497,320.936 199.241 M97.596 206.582 L 97.400 216.964 96.400 217.242 C 95.517 217.488,95.500 217.525,96.251 217.560 C 97.929 217.639,98.020 217.021,97.903 206.351 L 97.793 196.200 97.596 206.582 M170.468 196.800 C 170.488 197.839,171.118 199.546,171.132 198.600 C 171.138 198.160,170.989 197.440,170.800 197.000 C 170.589 196.510,170.461 196.432,170.468 196.800 M298.649 197.015 C 298.512 197.373,298.418 198.056,298.441 198.533 C 298.467 199.081,298.603 198.886,298.810 198.003 C 299.160 196.516,299.065 195.933,298.649 197.015 M164.200 203.957 C 164.200 207.042,164.322 209.258,164.472 208.883 C 164.816 208.018,164.807 200.509,164.460 199.274 C 164.317 198.765,164.200 200.872,164.200 203.957 M48.251 200.300 L 48.500 201.600 42.530 201.600 C 38.303 201.600,36.405 201.454,36.030 201.100 C 35.602 200.696,35.535 200.716,35.683 201.200 C 35.834 201.695,36.998 201.819,42.333 201.910 L 48.800 202.020 48.794 201.110 C 48.791 200.609,48.611 199.930,48.394 199.600 C 48.115 199.173,48.073 199.376,48.251 200.300 M245.851 200.300 L 246.100 201.600 240.130 201.600 C 235.903 201.600,234.005 201.454,233.630 201.100 C 233.202 200.696,233.135 200.716,233.283 201.200 C 233.434 201.695,234.598 201.819,239.933 201.910 L 246.400 202.020 246.394 201.110 C 246.391 200.609,246.211 199.930,245.994 199.600 C 245.715 199.173,245.673 199.376,245.851 200.300 M291.450 200.450 C 291.135 202.025,291.194 207.497,291.540 208.724 C 291.683 209.232,291.800 207.297,291.800 204.424 C 291.800 198.648,291.803 198.684,291.450 200.450 M313.400 199.707 C 312.173 200.447,299.218 200.654,298.719 199.941 C 298.412 199.504,298.371 199.516,298.502 200.000 C 298.829 201.203,312.232 201.019,313.855 199.790 C 314.767 199.099,314.491 199.049,313.400 199.707 M171.344 203.600 C 171.344 205.690,171.412 206.545,171.494 205.500 C 171.576 204.455,171.576 202.745,171.494 201.700 C 171.412 200.655,171.344 201.510,171.344 203.600 M339.761 206.400 C 339.761 209.810,339.822 211.205,339.897 209.500 C 339.972 207.795,339.972 205.005,339.897 203.300 C 339.822 201.595,339.761 202.990,339.761 206.400 M33.790 206.430 C 33.412 207.622,33.727 207.715,34.267 206.571 C 34.519 206.037,34.574 205.600,34.389 205.600 C 34.205 205.600,33.935 205.974,33.790 206.430 M50.324 206.200 C 50.526 206.640,50.792 207.270,50.914 207.600 C 51.107 208.118,51.141 208.115,51.168 207.576 C 51.186 207.234,50.920 206.604,50.578 206.176 C 49.966 205.412,49.962 205.413,50.324 206.200 M231.390 206.430 C 231.012 207.622,231.327 207.715,231.867 206.571 C 232.119 206.037,232.174 205.600,231.989 205.600 C 231.805 205.600,231.535 205.974,231.390 206.430 M247.924 206.200 C 248.126 206.640,248.392 207.270,248.514 207.600 C 248.707 208.118,248.741 208.115,248.768 207.576 C 248.786 207.234,248.520 206.604,248.178 206.176 C 247.566 205.412,247.562 205.413,247.924 206.200 M298.406 207.833 C 298.409 208.255,298.595 208.870,298.818 209.200 C 299.115 209.638,299.152 209.476,298.956 208.600 C 298.627 207.129,298.398 206.810,298.406 207.833 M170.629 209.429 C 170.481 210.015,170.438 210.572,170.532 210.666 C 170.627 210.760,170.824 210.358,170.971 209.771 C 171.119 209.185,171.162 208.628,171.068 208.534 C 170.973 208.440,170.776 208.842,170.629 209.429 M299.205 210.222 C 299.198 210.860,301.358 214.120,302.232 214.788 C 302.840 215.254,302.819 215.171,302.130 214.388 C 301.651 213.845,300.798 212.590,300.235 211.600 C 299.671 210.610,299.207 209.990,299.205 210.222 M169.127 213.531 C 167.595 216.782,165.560 218.958,162.728 220.373 C 161.377 221.048,160.488 221.600,160.752 221.600 C 163.523 221.600,171.785 212.852,170.360 211.427 C 170.270 211.337,169.715 212.284,169.127 213.531 M317.328 213.662 C 316.271 214.577,314.684 215.654,313.803 216.054 C 312.921 216.455,312.434 216.786,312.720 216.791 C 313.583 216.806,315.431 215.704,317.394 214.005 C 318.930 212.676,319.384 212.470,320.025 212.813 C 320.451 213.042,320.800 213.138,320.800 213.028 C 320.800 211.831,319.082 212.144,317.328 213.662 M162.800 212.811 C 162.800 213.036,161.995 214.026,161.011 215.011 C 160.026 215.995,159.381 216.800,159.577 216.800 C 160.008 216.800,163.200 213.227,163.200 212.744 C 163.200 212.555,163.110 212.400,163.000 212.400 C 162.890 212.400,162.800 212.585,162.800 212.811 M118.867 215.273 C 118.806 216.990,118.708 217.161,117.700 217.313 L 116.600 217.480 117.713 217.540 C 119.020 217.610,119.313 217.059,119.094 214.942 C 118.940 213.456,118.932 213.468,118.867 215.273 M198.800 215.200 C 198.030 215.622,197.544 215.974,197.720 215.983 C 198.144 216.005,200.400 214.832,200.400 214.590 C 200.400 214.328,200.377 214.337,198.800 215.200 M294.276 215.512 C 294.667 216.234,295.612 217.404,296.377 218.112 L 297.766 219.400 296.383 217.796 C 295.622 216.914,294.677 215.744,294.283 215.196 C 293.591 214.235,293.590 214.246,294.276 215.512 M319.981 215.235 C 319.735 215.695,318.881 216.820,318.084 217.735 L 316.634 219.400 318.023 218.112 C 319.333 216.899,321.092 214.400,320.637 214.400 C 320.522 214.400,320.227 214.776,319.981 215.235 M60.832 215.300 C 60.776 216.524,62.254 217.605,63.900 217.546 C 64.920 217.508,65.080 217.441,64.400 217.334 C 62.063 216.965,61.648 216.749,61.265 215.701 C 61.012 215.008,60.851 214.859,60.832 215.300 M189.600 215.019 C 189.600 216.247,194.588 217.241,196.600 216.415 C 197.073 216.221,196.389 216.173,194.924 216.297 C 192.879 216.470,192.199 216.360,191.024 215.667 C 190.241 215.205,189.600 214.914,189.600 215.019 M258.432 215.300 C 258.376 216.524,259.854 217.605,261.500 217.546 C 262.520 217.508,262.680 217.441,262.000 217.334 C 259.663 216.965,259.248 216.749,258.865 215.701 C 258.612 215.008,258.451 214.859,258.432 215.300 M26.800 215.792 C 26.800 216.118,26.395 216.479,25.900 216.594 C 21.822 217.543,21.681 217.593,23.800 217.350 C 26.149 217.081,27.200 216.597,27.200 215.786 C 27.200 215.464,27.110 215.200,27.000 215.200 C 26.890 215.200,26.800 215.467,26.800 215.792 M224.400 215.792 C 224.400 216.118,223.995 216.479,223.500 216.594 C 219.422 217.543,219.281 217.593,221.400 217.350 C 223.749 217.081,224.800 216.597,224.800 215.786 C 224.800 215.464,224.710 215.200,224.600 215.200 C 224.490 215.200,224.400 215.467,224.400 215.792 M303.200 215.419 C 303.200 215.713,305.649 216.850,306.009 216.724 C 306.204 216.656,305.651 216.298,304.782 215.930 C 303.912 215.561,303.200 215.331,303.200 215.419 M53.632 216.065 C 53.608 216.563,52.973 216.835,51.100 217.147 L 48.600 217.564 50.995 217.368 C 53.524 217.160,54.226 216.811,53.877 215.935 C 53.726 215.559,53.654 215.597,53.632 216.065 M125.734 216.400 C 125.787 217.196,126.025 217.410,126.905 217.449 C 127.867 217.491,127.883 217.475,127.030 217.325 C 126.425 217.218,125.976 216.816,125.859 216.276 C 125.701 215.546,125.680 215.566,125.734 216.400 M251.232 216.065 C 251.208 216.563,250.573 216.835,248.700 217.147 L 246.200 217.564 248.595 217.368 C 251.124 217.160,251.826 216.811,251.477 215.935 C 251.326 215.559,251.254 215.597,251.232 216.065 M369.600 215.991 C 369.600 216.517,371.559 217.775,371.879 217.454 C 372.019 217.314,371.923 217.200,371.667 217.200 C 371.410 217.200,370.840 216.840,370.400 216.400 C 369.960 215.960,369.600 215.776,369.600 215.991 M202.393 217.008 C 201.872 217.562,200.581 218.571,199.523 219.249 C 198.465 219.928,197.600 220.559,197.600 220.652 C 197.600 221.057,199.954 219.545,201.646 218.053 C 202.662 217.158,203.607 216.540,203.746 216.680 C 203.886 216.819,204.000 216.723,204.000 216.467 C 204.000 215.723,203.414 215.921,202.393 217.008 M375.000 216.822 C 374.120 217.238,373.634 217.584,373.920 217.590 C 374.502 217.601,376.800 216.484,376.800 216.190 C 376.800 215.956,376.918 215.914,375.000 216.822 M83.301 216.800 C 83.390 217.130,83.899 217.433,84.431 217.474 C 85.195 217.532,85.231 217.501,84.600 217.328 C 84.160 217.207,83.651 216.903,83.470 216.654 C 83.251 216.354,83.194 216.404,83.301 216.800 M140.400 216.733 C 140.400 216.990,139.905 217.225,139.300 217.254 C 138.290 217.304,138.278 217.324,139.146 217.488 C 140.119 217.673,141.160 217.027,140.673 216.540 C 140.523 216.390,140.400 216.477,140.400 216.733 M340.000 216.712 C 340.000 217.256,341.714 217.779,342.483 217.471 C 342.767 217.357,342.541 217.249,341.980 217.232 C 341.419 217.214,340.744 216.984,340.480 216.720 C 340.115 216.355,340.000 216.353,340.000 216.712 M32.200 217.180 C 33.434 217.515,36.264 217.718,35.967 217.450 C 35.875 217.368,34.720 217.200,33.400 217.077 C 31.822 216.930,31.411 216.965,32.200 217.180 M152.400 217.182 C 152.730 217.405,153.345 217.591,153.767 217.594 C 154.790 217.602,154.471 217.373,153.000 217.044 C 152.124 216.848,151.962 216.885,152.400 217.182 M229.800 217.180 C 231.034 217.515,233.864 217.718,233.567 217.450 C 233.475 217.368,232.320 217.200,231.000 217.077 C 229.422 216.930,229.011 216.965,229.800 217.180 M280.341 217.301 C 280.543 217.503,281.133 217.601,281.654 217.519 C 282.455 217.393,282.398 217.337,281.287 217.152 C 280.493 217.021,280.119 217.079,280.341 217.301 M308.307 217.090 C 309.026 217.179,310.106 217.177,310.707 217.086 C 311.308 216.995,310.720 216.922,309.400 216.924 C 308.080 216.926,307.588 217.001,308.307 217.090 M183.886 218.399 C 184.610 219.736,186.853 221.600,187.737 221.600 C 187.968 221.600,187.311 221.064,186.278 220.409 C 185.245 219.754,184.400 219.068,184.400 218.885 C 184.400 218.702,184.114 218.204,183.764 217.776 C 183.335 217.253,183.375 217.455,183.886 218.399 M20.558 218.166 C 20.438 218.478,20.405 219.243,20.484 219.866 C 20.602 220.791,20.664 220.687,20.825 219.300 C 21.027 217.551,20.938 217.175,20.558 218.166 M36.861 218.574 C 37.821 220.681,37.508 220.773,28.916 220.905 L 21.000 221.027 28.957 221.013 C 35.796 221.002,36.970 220.910,37.316 220.362 C 37.769 219.642,37.389 217.600,36.801 217.600 C 36.572 217.600,36.597 217.994,36.861 218.574 M66.555 219.111 L 66.600 220.600 57.200 220.811 L 47.800 221.022 56.867 221.111 C 61.854 221.160,66.219 221.091,66.567 220.957 C 67.245 220.697,67.474 218.217,66.855 217.834 C 66.666 217.717,66.531 218.291,66.555 219.111 M92.880 218.080 C 92.616 218.344,92.424 219.109,92.453 219.780 L 92.505 221.000 92.753 219.617 C 92.937 218.588,93.256 218.163,94.000 217.957 C 94.837 217.725,94.866 217.673,94.180 217.640 C 93.729 217.618,93.144 217.816,92.880 218.080 M108.300 218.012 C 108.955 218.276,109.216 218.732,109.260 219.687 C 109.317 220.932,109.329 220.942,109.489 219.876 C 109.679 218.610,109.026 217.587,108.051 217.625 C 107.610 217.643,107.691 217.768,108.300 218.012 M114.080 218.080 C 113.385 218.775,113.485 220.670,114.233 220.957 C 114.581 221.091,118.316 221.161,122.533 221.113 L 130.200 221.026 122.200 220.813 L 114.200 220.600 114.077 219.541 C 113.979 218.691,114.177 218.401,115.077 218.072 C 115.974 217.745,116.035 217.657,115.380 217.632 C 114.929 217.614,114.344 217.816,114.080 218.080 M129.500 218.012 C 130.155 218.276,130.416 218.732,130.460 219.687 C 130.517 220.932,130.529 220.942,130.689 219.876 C 130.879 218.610,130.226 217.587,129.251 217.625 C 128.810 217.643,128.891 217.768,129.500 218.012 M135.680 218.080 C 133.884 219.876,135.483 221.144,139.832 221.373 L 143.400 221.560 140.000 221.178 C 135.255 220.645,134.057 219.499,136.800 218.116 C 137.694 217.665,137.713 217.611,136.980 217.606 C 136.529 217.603,135.944 217.816,135.680 218.080 M147.060 217.903 C 146.957 218.070,146.770 218.925,146.644 219.803 L 146.416 221.400 146.908 219.685 C 147.388 218.011,147.419 217.987,148.187 218.685 C 148.965 219.392,148.965 219.390,148.225 218.500 C 147.395 217.502,147.329 217.468,147.060 217.903 M213.500 218.012 C 214.148 218.273,214.400 218.704,214.400 219.553 L 214.400 220.732 211.300 220.995 C 207.037 221.358,206.630 221.656,210.762 221.388 C 214.699 221.134,214.800 221.090,214.800 219.656 C 214.800 218.425,214.148 217.587,213.220 217.625 C 212.840 217.641,212.948 217.791,213.500 218.012 M218.158 218.166 C 218.038 218.478,218.005 219.243,218.084 219.866 C 218.202 220.791,218.264 220.687,218.425 219.300 C 218.627 217.551,218.538 217.175,218.158 218.166 M234.461 218.574 C 235.421 220.681,235.108 220.773,226.516 220.905 L 218.600 221.027 226.557 221.013 C 233.396 221.002,234.570 220.910,234.916 220.362 C 235.369 219.642,234.989 217.600,234.401 217.600 C 234.172 217.600,234.197 217.994,234.461 218.574 M264.155 219.111 L 264.200 220.600 254.800 220.811 L 245.400 221.022 254.467 221.111 C 259.454 221.160,263.819 221.091,264.167 220.957 C 264.845 220.697,265.074 218.217,264.455 217.834 C 264.266 217.717,264.131 218.291,264.155 219.111 M268.080 218.080 C 267.816 218.344,267.624 219.109,267.653 219.780 L 267.705 221.000 267.953 219.617 C 268.137 218.588,268.456 218.163,269.200 217.957 C 270.037 217.725,270.066 217.673,269.380 217.640 C 268.929 217.618,268.344 217.816,268.080 218.080 M284.000 217.957 C 284.744 218.163,285.063 218.588,285.247 219.617 L 285.495 221.000 285.547 219.780 C 285.609 218.362,284.981 217.583,283.820 217.640 C 283.134 217.673,283.163 217.725,284.000 217.957 M328.480 218.080 C 327.785 218.775,327.885 220.670,328.633 220.957 C 328.981 221.091,332.896 221.161,337.333 221.112 L 345.400 221.025 337.000 220.812 L 328.600 220.600 328.477 219.541 C 328.379 218.691,328.577 218.401,329.477 218.072 C 330.374 217.745,330.435 217.657,329.780 217.632 C 329.329 217.614,328.744 217.816,328.480 218.080 M344.399 217.958 C 345.081 218.147,345.479 218.612,345.652 219.418 C 345.890 220.530,345.908 220.540,345.953 219.580 C 346.010 218.348,345.330 217.586,344.220 217.640 C 343.533 217.673,343.561 217.725,344.399 217.958 M204.028 219.033 C 204.044 219.675,204.216 220.560,204.410 221.000 C 204.647 221.534,204.686 221.202,204.527 220.000 C 204.246 217.880,203.988 217.380,204.028 219.033 M364.367 219.345 C 364.900 220.001,366.400 220.993,366.400 220.689 C 366.400 220.613,365.815 220.122,365.100 219.599 C 364.296 219.010,364.016 218.913,364.367 219.345 M377.347 219.613 C 377.119 219.841,376.048 220.372,374.967 220.795 C 373.885 221.217,373.270 221.567,373.600 221.573 C 374.416 221.586,377.436 220.189,377.774 219.642 C 378.118 219.086,377.890 219.070,377.347 219.613 M75.921 221.099 C 78.188 221.170,81.788 221.170,83.921 221.098 C 86.055 221.026,84.200 220.968,79.800 220.968 C 75.400 220.968,73.655 221.027,75.921 221.099 M97.121 221.099 C 99.388 221.170,102.988 221.170,105.121 221.098 C 107.255 221.026,105.400 220.968,101.000 220.968 C 96.600 220.968,94.855 221.027,97.121 221.099 M272.522 221.099 C 274.899 221.170,278.679 221.169,280.922 221.098 C 283.165 221.027,281.220 220.969,276.600 220.969 C 271.980 220.970,270.145 221.028,272.522 221.099 M301.200 221.200 C 301.530 221.413,302.070 221.588,302.400 221.588 C 302.933 221.588,302.933 221.545,302.400 221.200 C 302.070 220.987,301.530 220.812,301.200 220.812 C 300.667 220.812,300.667 220.855,301.200 221.200 M155.100 222.050 C 156.035 222.219,157.565 222.219,158.500 222.050 C 159.899 221.796,159.598 221.741,156.800 221.741 C 154.002 221.741,153.701 221.796,155.100 222.050 M189.798 222.024 C 190.676 222.179,192.206 222.176,193.198 222.017 C 194.668 221.782,194.374 221.730,191.600 221.736 C 189.024 221.741,188.587 221.810,189.798 222.024 M305.260 222.035 C 306.283 222.193,308.083 222.191,309.260 222.031 C 311.055 221.786,310.756 221.739,307.400 221.743 C 304.306 221.746,303.821 221.812,305.260 222.035 " stroke="none" fill="#9c9c9c" fill-rule="evenodd"></path><path id="path4" d="M279.709 172.400 C 279.709 173.390,279.787 173.795,279.882 173.300 C 279.978 172.805,279.978 171.995,279.882 171.500 C 279.787 171.005,279.709 171.410,279.709 172.400 M146.876 184.076 C 146.834 187.528,146.935 190.437,147.100 190.539 C 147.265 190.642,147.353 188.808,147.295 186.463 C 147.100 178.598,146.952 177.753,146.876 184.076 M369.293 180.400 C 369.293 181.170,369.375 181.485,369.476 181.100 C 369.576 180.715,369.576 180.085,369.476 179.700 C 369.375 179.315,369.293 179.630,369.293 180.400 M209.714 189.400 C 209.717 190.500,209.795 190.903,209.887 190.295 C 209.979 189.686,209.977 188.786,209.882 188.295 C 209.787 187.803,209.711 188.300,209.714 189.400 M362.972 200.800 C 362.972 205.970,363.029 208.085,363.099 205.500 C 363.168 202.915,363.168 198.685,363.099 196.100 C 363.029 193.515,362.972 195.630,362.972 200.800 M188.093 194.000 C 188.093 194.770,188.175 195.085,188.276 194.700 C 188.376 194.315,188.376 193.685,188.276 193.300 C 188.175 192.915,188.093 193.230,188.093 194.000 M125.363 202.800 C 125.363 206.430,125.423 207.915,125.498 206.100 C 125.572 204.285,125.572 201.315,125.498 199.500 C 125.423 197.685,125.363 199.170,125.363 202.800 M98.165 205.400 C 98.166 209.360,98.226 210.926,98.298 208.880 C 98.371 206.834,98.371 203.594,98.298 201.680 C 98.224 199.766,98.165 201.440,98.165 205.400 M38.500 205.498 C 40.645 205.570,44.155 205.570,46.300 205.498 C 48.445 205.426,46.690 205.367,42.400 205.367 C 38.110 205.367,36.355 205.426,38.500 205.498 M236.100 205.498 C 238.245 205.570,241.755 205.570,243.900 205.498 C 246.045 205.426,244.290 205.367,240.000 205.367 C 235.710 205.367,233.955 205.426,236.100 205.498 M203.714 209.800 C 203.717 210.900,203.795 211.303,203.887 210.695 C 203.979 210.086,203.977 209.186,203.882 208.695 C 203.787 208.203,203.711 208.700,203.714 209.800 M339.720 214.400 C 339.720 215.610,339.795 216.105,339.887 215.500 C 339.978 214.895,339.978 213.905,339.887 213.300 C 339.795 212.695,339.720 213.190,339.720 214.400 M82.914 214.600 C 82.917 215.700,82.995 216.103,83.087 215.495 C 83.179 214.886,83.177 213.986,83.082 213.495 C 82.987 213.003,82.911 213.500,82.914 214.600 M140.893 215.200 C 140.893 215.970,140.975 216.285,141.076 215.900 C 141.176 215.515,141.176 214.885,141.076 214.500 C 140.975 214.115,140.893 214.430,140.893 215.200 " stroke="none" fill="#7c7c7c" fill-rule="evenodd"></path></g></svg>