<?xml version="1.0" encoding="UTF-8"?>
<svg xmlns="http://www.w3.org/2000/svg" viewBox="0 0 389.2 430.71">
  <defs>
    <style>
      .cls-1 {
        stroke: #e5e5e5;
        stroke-width: .75px;
      }

      .cls-1, .cls-2, .cls-3, .cls-4, .cls-5, .cls-6, .cls-7, .cls-8, .cls-9, .cls-10, .cls-11, .cls-12, .cls-13, .cls-14, .cls-15, .cls-16, .cls-17, .cls-18, .cls-19, .cls-20, .cls-21, .cls-22, .cls-23, .cls-24 {
        fill: none;
      }

      .cls-1, .cls-2, .cls-4, .cls-5, .cls-6, .cls-7, .cls-8, .cls-9, .cls-10, .cls-11, .cls-12, .cls-13, .cls-15, .cls-16, .cls-17, .cls-18, .cls-19, .cls-20, .cls-21, .cls-22, .cls-23, .cls-24 {
        stroke-miterlimit: 10;
      }

      .cls-2 {
        stroke: #eee;
      }

      .cls-2, .cls-4, .cls-5, .cls-6, .cls-7, .cls-8, .cls-9, .cls-10, .cls-11, .cls-12, .cls-13, .cls-15, .cls-16, .cls-17, .cls-18, .cls-19, .cls-20, .cls-21, .cls-22, .cls-23, .cls-24 {
        stroke-width: .75px;
      }

      .cls-3 {
        mix-blend-mode: multiply;
      }

      .cls-4 {
        stroke: #fff;
      }

      .cls-5 {
        stroke: #c2c2c2;
      }

      .cls-6 {
        stroke: #bebebe;
      }

      .cls-7 {
        stroke: #c7c7c7;
      }

      .cls-8 {
        stroke: #dcdcdc;
      }

      .cls-9 {
        stroke: #b5b5b5;
      }

      .cls-10 {
        stroke: #f6f6f6;
      }

      .cls-11 {
        stroke: #a8a8a8;
      }

      .cls-12 {
        stroke: #f2f2f2;
      }

      .cls-13 {
        stroke: #e9e9e9;
      }

      .cls-14 {
        isolation: isolate;
      }

      .cls-15 {
        stroke: #d4d4d4;
      }

      .cls-16 {
        stroke: #cfcfcf;
      }

      .cls-17 {
        stroke: #e1e1e1;
      }

      .cls-18 {
        stroke: #a4a4a4;
      }

      .cls-19 {
        stroke: #fbfbfb;
      }

      .cls-20 {
        stroke: #d8d8d8;
      }

      .cls-21 {
        stroke: #cbcbcb;
      }

      .cls-22 {
        stroke: #b1b1b1;
      }

      .cls-23 {
        stroke: #adadad;
      }

      .cls-24 {
        stroke: #bababa;
      }
    </style>
  </defs>
  <g class="cls-14">
    <g id="Layer_2" data-name="Layer 2">
      <g id="OBJECTS">
        <g class="cls-3">
          <path class="cls-4" d="m385.72,10.59c8.54,15.16-1.68,35.15-16.57,44.16-14.89,9.02-32.95,10.45-50.06,13.65s-35.29,9.4-44.64,24.07c-11.96,18.76-5.62,45.28-18.36,63.52-9.93,14.22-28.57,18.84-45.04,18.07-9.32-.43-18.49-3.84-27.72-5.04-41.85-5.46-60.42-44.13-91.64-38.21-33.8,6.42-44.47,28.57-46.02,41.52-1.99,16.6-.15,56.8,40.64,68.49,16.57,4.75,33.26,10.22,47.81,19.46,21.79,13.84,33.95,43.69,22.95,67.04-7.54,16.01-24.42,27.66-26.81,45.19-1.6,11.78,4.19,23.74,13.01,31.72,8.82,7.98,20.3,12.43,31.88,15.11"/>
          <path class="cls-19" d="m384.67,10.08c8.12,15.87-1.73,36.52-16.95,46.08-14.86,9.33-33.16,10.91-50.41,13.77-17.05,2.82-35.01,8.3-44.67,22.12-12.33,17.67-7.33,43.26-20.11,61.34-10.2,14.36-28.15,19.85-44.63,20.03-9.46.1-19.05-2.72-28.66-3.84-40.73-4.75-59.21-41.95-89.77-36.2-32.86,6.2-43.77,27.49-45.63,40.38-2.35,16.33-.46,55.01,38.52,67.13,16.07,4.99,32.38,10.85,46.76,20.07,21.19,13.54,33.13,42.24,23.07,65.05-6.96,15.78-22.99,27.63-25.42,44.96-1.68,11.86,3.64,23.81,11.89,32.11s19.36,13.54,30.78,16.83"/>
          <path class="cls-10" d="m383.63,9.58c7.7,16.58-1.78,37.89-17.33,47.99-14.83,9.63-33.38,11.37-50.77,13.88s-34.73,7.21-44.7,20.16c-12.71,16.57-9,41.26-21.86,59.16-10.44,14.53-27.75,20.87-44.21,21.98-9.62.65-19.61-1.6-29.59-2.64-39.59-4.09-58-39.77-87.9-34.2-31.93,5.98-43.08,26.42-45.23,39.23-2.7,16.06-.76,53.25,36.41,65.76,15.58,5.24,31.51,11.48,45.7,20.69,20.6,13.25,32.32,40.8,23.18,63.05-6.39,15.56-21.56,27.59-24.03,44.73-1.76,11.93,3.08,23.89,10.76,32.5s18.42,14.64,29.69,18.54"/>
          <path class="cls-12" d="m382.59,9.07c7.27,17.29-1.84,39.25-17.72,49.9-14.8,9.93-33.59,11.84-51.13,14s-34.45,6.11-44.72,18.21c-13.08,15.47-10.69,39.25-23.61,56.98-10.69,14.68-27.36,21.92-43.8,23.93-9.78,1.2-20.16-.49-30.53-1.43-38.44-3.49-56.79-37.59-86.03-32.19-30.99,5.76-42.37,25.34-44.83,38.09-3.05,15.78-1.06,51.51,34.29,64.39,15.09,5.5,30.61,12.15,44.65,21.3,19.96,13.01,31.51,39.38,23.3,61.06-5.81,15.35-20.09,27.56-22.64,44.5-1.81,12.02,2.52,23.98,9.63,32.88s17.48,15.74,28.59,20.26"/>
          <path class="cls-2" d="m381.55,8.57c6.85,18-1.89,40.61-18.1,51.82-14.78,10.22-33.8,12.31-51.49,14.12s-34.17,5.02-44.75,16.25c-13.45,14.38-12.39,37.23-25.36,54.81-10.95,14.83-26.98,22.98-43.38,25.89-9.95,1.76-20.72.62-31.47-.23-37.29-2.93-55.58-35.41-84.16-30.19-30.05,5.54-41.67,24.27-44.43,36.94-3.39,15.51-1.34,49.8,32.17,63.02,14.61,5.76,29.73,12.8,43.6,21.91,19.36,12.73,30.71,37.96,23.41,59.07-5.24,15.14-18.65,27.53-21.25,44.26-1.88,12.09,1.96,24.08,8.51,33.27s16.54,16.84,27.49,21.97"/>
          <path class="cls-13" d="m380.51,8.07c6.42,18.71-1.95,41.97-18.48,53.73-14.76,10.5-34.01,12.78-51.85,14.23-16.78,1.37-33.91,3.9-44.77,14.3-13.85,13.25-14.09,35.22-27.11,52.63-11.21,14.99-26.6,24.06-42.97,27.84-10.11,2.34-21.27,1.72-32.41.97-36.12-2.42-54.37-33.23-82.29-28.18-29.11,5.32-40.96,23.19-44.04,35.79-3.73,15.23-1.63,48.13,30.05,61.65,14.14,6.04,28.86,13.44,42.55,22.53,18.75,12.44,29.92,36.56,23.53,57.08-4.66,14.95-17.21,27.5-19.85,44.03-1.95,12.17,1.39,24.18,7.38,33.66,6.36,10.06,15.6,17.95,26.39,23.69"/>
          <path class="cls-1" d="m379.46,7.56c6,19.42-2.01,43.32-18.87,55.64-14.75,10.78-34.21,13.26-52.21,14.35-16.71,1.02-33.64,2.8-44.8,12.34-14.22,12.15-15.79,33.2-28.86,50.45-11.47,15.14-26.22,25.16-42.55,29.79-10.28,2.92-21.82,2.82-33.35,2.18-34.95-1.95-53.16-31.05-80.42-26.18-28.17,5.1-40.24,22.11-43.64,34.65-4.06,14.96-1.91,46.49,27.94,60.28,13.68,6.32,27.98,14.08,41.49,23.14,18.15,12.16,29.14,35.17,23.64,55.09-4.07,14.76-15.77,27.46-18.46,43.8-2.02,12.25.81,24.3,6.26,34.05,5.86,10.5,14.66,19.05,25.29,25.4"/>
          <path class="cls-17" d="m378.42,7.06c5.58,20.13-2.07,44.66-19.25,57.56-14.73,11.06-34.42,13.74-52.57,14.47-16.64.67-33.36,1.71-44.82,10.39-14.59,11.05-17.5,31.18-30.61,48.27-11.73,15.29-25.84,26.27-42.13,31.75-10.45,3.51-22.37,3.91-34.29,3.38-33.78-1.51-51.95-28.87-78.55-24.17-27.24,4.88-39.52,21.04-43.24,33.5-4.38,14.68-2.2,44.89,25.82,58.92,13.22,6.62,27.1,14.72,40.44,23.75,17.55,11.87,28.37,33.78,23.75,53.09-3.48,14.58-14.34,27.43-17.07,43.57-2.09,12.33.23,24.43,5.13,34.44,5.36,10.96,13.72,20.15,24.19,27.12"/>
          <path class="cls-8" d="m377.38,6.55c5.15,20.84-2.14,46.01-19.64,59.47-14.72,11.33-34.63,14.22-52.92,14.58-16.57.33-33.08.61-44.85,8.43-14.96,9.95-19.21,29.16-32.36,46.09-11.99,15.43-25.46,27.4-41.72,33.7-10.62,4.12-22.92,3.93-35.23,4.59-32.58,1.73-50.74-26.68-76.68-22.17-26.3,4.66-38.8,19.96-42.85,32.35-4.7,14.41-2.48,43.34,23.7,57.55,12.76,6.93,26.22,15.36,39.39,24.37,16.94,11.59,27.61,32.41,23.87,51.1-2.88,14.41-12.9,27.4-15.68,43.33-2.16,12.4-.35,24.56,4.01,34.83,4.84,11.42,12.77,21.26,23.09,28.83"/>
          <path class="cls-20" d="m376.34,6.05c4.73,21.55-2.21,47.34-20.02,61.38-14.72,11.6-34.84,15.21-53.28,14.7-16.49-.46-32.8-.49-44.88,6.48-15.33,8.85-20.91,27.14-34.11,43.91-12.26,15.58-25.07,28.54-41.3,35.65-10.78,4.73-23.48,4.93-36.17,5.79-31.36,2.13-49.53-24.5-74.81-20.16-25.36,4.44-38.08,18.88-42.45,31.21-5.02,14.13-2.78,41.83,21.58,56.18,12.31,7.25,25.35,16,38.34,24.98,16.34,11.3,26.87,31.05,23.98,49.11-2.28,14.24-11.47,27.36-14.29,43.1-2.24,12.48-.95,24.69,2.88,35.22,4.32,11.88,11.83,22.36,21.99,30.55"/>
          <path class="cls-15" d="m375.3,5.55c4.31,22.26-2.28,48.68-20.4,63.3-14.71,11.86-35.03,15.21-53.64,14.82-16.42-.35-32.52-1.59-44.9,4.53-15.7,7.75-22.63,25.12-35.86,41.73-12.52,15.73-24.67,29.69-40.89,37.61-10.94,5.34-24.05,5.93-37.11,6.99-30.15,2.44-48.32-22.32-72.94-18.16-24.42,4.22-37.34,17.81-42.05,30.06-5.33,13.86-3.09,40.37,19.47,54.81,11.86,7.6,24.47,16.64,37.28,25.59,15.74,11,26.15,29.7,24.1,47.12-1.66,14.09-10.04,27.33-12.9,42.87-2.31,12.56-1.55,24.83,1.75,35.61,3.79,12.35,10.89,23.46,20.9,32.26"/>
          <path class="cls-16" d="m374.25,5.04c3.88,22.98-2.35,50.01-20.79,65.21-14.71,12.13-35.24,15.71-54,14.93-16.35-.68-32.24-2.68-44.93,2.57-16.07,6.65-24.34,23.09-37.61,39.55s-24.27,30.85-40.47,39.56c-11.1,5.97-24.61,6.95-38.05,8.2-28.94,2.69-47.11-20.14-71.07-16.15-23.48,4-36.61,16.74-41.66,28.91-5.63,13.59-3.41,38.96,17.35,53.44,11.4,7.96,23.6,17.28,36.23,26.21,15.15,10.71,25.45,28.36,24.21,45.13-1.03,13.94-8.61,27.29-11.51,42.64-2.39,12.63-2.17,24.97.63,36,3.25,12.82,9.95,24.57,19.8,33.97"/>
          <path class="cls-21" d="m373.21,4.54c3.46,23.69-2.43,51.34-21.17,67.12-14.7,12.39-35.44,16.21-54.36,15.05-16.28-1-31.95-3.78-44.95.62-16.44,5.55-26.05,21.07-39.36,37.37s-23.86,32.02-40.06,41.51c-11.25,6.59-25.17,7.97-38.99,9.4-27.73,2.86-45.91-18.01-69.2-14.15-22.55,3.74-35.87,15.66-41.26,27.77-5.93,13.32-3.75,37.6,15.23,52.08,10.94,8.35,22.72,17.91,35.18,26.82,14.55,10.41,24.77,27.02,24.33,43.14-.38,13.8-7.18,27.26-10.12,42.4-2.47,12.71-2.79,25.11-.5,36.39,2.7,13.29,9.01,25.67,18.7,35.69"/>
          <path class="cls-7" d="m372.17,4.04c3.03,24.4-2.51,52.66-21.55,69.04-14.71,12.65-35.65,16.72-54.72,15.17-16.2-1.32-31.67-4.87-44.98-1.34-16.8,4.46-27.77,19.04-41.11,35.19s-23.45,33.19-39.64,43.47c-11.39,7.23-25.73,9.01-39.93,10.6-26.54,2.98-44.7-15.83-67.33-12.15s-35.13,14.59-40.86,26.62c-6.23,13.06-4.12,36.29,13.11,50.71,10.47,8.76,21.85,18.54,34.12,27.44,13.96,10.11,24.12,25.69,24.44,41.14.28,13.65-5.75,27.22-8.73,42.17-2.55,12.79-3.41,25.25-1.62,36.77,2.14,13.75,8.07,26.77,17.6,37.4"/>
          <path class="cls-5" d="m371.13,3.53c2.61,25.11-2.6,53.98-21.94,70.95-14.71,12.9-35.86,17.24-55.08,15.28-16.13-1.64-31.39-5.96-45-3.29-17.17,3.37-29.49,17.01-42.86,33.01s-23.02,34.37-39.22,45.42c-11.53,7.87-26.28,10.05-40.87,11.81-25.35,3.04-43.49-13.65-65.46-10.14-20.68,3.3-34.38,13.53-40.47,25.47-6.52,12.79-4.53,35.03,10.99,49.34,9.97,9.19,20.98,19.17,33.07,28.05,13.36,9.81,23.49,24.35,24.56,39.15.97,13.51-4.33,27.19-7.34,41.94-2.63,12.86-4.05,25.39-2.75,37.16,1.57,14.22,7.13,27.87,16.5,39.12"/>
          <path class="cls-6" d="m370.09,3.03c2.19,25.82-2.69,55.3-22.32,72.86-14.71,13.16-36.06,17.76-55.44,15.4-16.06-1.95-31.11-7.05-45.03-5.25-17.54,2.27-31.21,14.98-44.6,30.83-13.89,16.43-22.6,35.55-38.81,47.38-11.67,8.51-26.73,12.35-41.81,13.01-24.34,1.06-42.28-11.46-63.59-8.14-19.74,3.08-33.63,12.46-40.07,24.33-6.81,12.53-4.98,33.81,8.88,47.97,9.45,9.66,20.11,19.8,32.02,28.66,12.77,9.51,22.89,23.01,24.67,37.16,1.69,13.37-2.9,27.15-5.95,41.71-2.71,12.94-4.69,25.52-3.87,37.55.99,14.69,6.19,28.98,15.4,40.83"/>
          <path class="cls-24" d="m369.04,2.52c1.76,26.53-2.78,56.62-22.71,74.77-14.72,13.41-36.27,18.28-55.79,15.52-15.99-2.26-30.82-8.14-45.06-7.2-17.9,1.18-32.93,12.95-46.35,28.65-14.16,16.57-22.16,36.74-38.39,49.33-11.8,9.15-27.28,13.35-42.75,14.21-23.16,1.29-41.06-9.28-61.73-6.13-18.8,2.87-32.87,11.4-39.67,23.18-7.09,12.28-5.48,32.63,6.76,46.6,8.89,10.16,19.24,20.42,30.97,29.28s22.31,21.67,24.79,35.17c2.43,13.21-1.48,27.11-4.56,41.47-2.79,13.01-5.33,25.66-5,37.94.41,15.15,5.25,30.08,14.3,42.55"/>
          <path class="cls-9" d="m368,2.02c1.34,27.24-2.87,57.93-23.09,76.69-14.73,13.66-36.48,18.81-56.15,15.63-15.93-2.57-30.54-9.21-45.08-9.16-18.27.13-34.65,10.91-48.1,26.47-14.44,16.7-21.72,37.92-37.98,51.28-11.92,9.8-27.83,14.33-43.69,15.42-21.99,1.51-39.85-7.06-59.86-4.13-17.86,2.69-32.11,10.35-39.28,22.03s-6.03,31.48,4.64,45.24c8.29,10.68,18.38,21.04,29.91,29.89s21.75,20.31,24.9,33.18-.06,27.08-3.17,41.24c-2.88,13.09-5.98,25.79-6.13,38.33-.18,15.61,4.31,31.18,13.2,44.26"/>
          <path class="cls-22" d="m366.96,1.52c.92,27.95-2.96,59.24-23.47,78.6-14.74,13.91-36.69,19.34-56.51,15.75-15.86-2.87-30.26-10.3-45.11-11.11-18.64-.97-36.37,8.88-49.85,24.3-14.72,16.84-21.27,39.11-37.56,53.24-12.04,10.44-28.39,15.28-44.63,16.62-20.83,1.72-38.64-4.88-57.99-2.12-16.92,2.47-31.35,9.29-38.88,20.89s-6.65,30.34,2.52,43.87c7.62,11.23,17.52,21.66,28.86,30.5,11.01,8.58,21.22,18.93,25.02,31.18,3.99,12.86,1.36,27.04-1.78,41.01-2.96,13.16-6.63,25.91-7.25,38.72-.78,16.06,3.37,32.29,12.1,45.98"/>
          <path class="cls-23" d="m365.92,1.01c.49,28.66-3.06,60.55-23.86,80.51-14.75,14.16-36.91,19.88-56.87,15.87-15.8-3.18-29.98-11.39-45.13-13.07-19.01-2.06-38.13,6.82-51.6,22.12-15.04,16.94-20.82,40.29-37.15,55.19-12.16,11.09-28.95,16.21-45.57,17.82-19.66,1.91-37.43-2.7-56.12-.12-15.98,2.25-30.58,8.25-38.48,19.74s-7.33,29.19.41,42.5c6.87,11.81,16.66,22.28,27.81,31.12,10.43,8.27,20.69,17.52,25.13,29.19,4.81,12.65,2.76,27-.39,40.78-3.07,13.23-7.29,26.03-8.38,39.11-1.38,16.51,2.43,33.39,11.01,47.69"/>
          <path class="cls-11" d="m364.88.51c.07,29.37-3.19,61.83-24.24,82.43-14.79,14.39-37.13,20.42-57.23,15.98-15.73-3.47-29.71-12.49-45.16-15.02-19.39-3.16-39.84,4.79-53.35,19.94-15.31,17.08-20.36,41.48-36.73,57.14-12.27,11.74-29.51,17.1-46.51,19.03-18.51,2.09-36.22-.51-54.25,1.89-15.04,2.03-29.81,7.2-38.08,18.59s-8.09,28.02-1.71,41.13c6.02,12.39,15.8,22.89,26.76,31.73,9.85,7.95,20.18,16.09,25.25,27.2,5.65,12.41,4.19,26.96,1,40.54-3.15,13.31-7.94,26.15-9.5,39.5-1.98,16.95,1.49,34.49,9.91,49.41"/>
          <path class="cls-18" d="m363.83,0c-.35,30.08-3.27,63.16-24.62,84.34-14.78,14.66-37.35,20.97-57.59,16.1-15.67-3.77-29.43-13.58-45.18-16.98-19.76-4.25-41.55,2.77-55.1,17.76-15.58,17.23-19.9,42.67-36.31,59.1-12.38,12.39-30.09,17.96-47.45,20.23-17.37,2.27-35.01,1.67-52.38,3.89-14.1,1.81-29.04,6.16-37.69,17.45-8.47,11.05-8.91,26.8-3.83,39.76,5.08,12.96,14.95,23.5,25.7,32.34,9.27,7.63,19.68,14.63,25.36,25.21,6.52,12.13,5.62,26.93,2.39,40.31-3.23,13.39-8.6,26.27-10.63,39.89-2.59,17.4.55,35.6,8.81,51.12"/>
        </g>
      </g>
    </g>
  </g>
</svg>